<svg xmlns="http://www.w3.org/2000/svg" xmlns:xlink="http://www.w3.org/1999/xlink" width="513" zoomAndPan="magnify" viewBox="0 0 384.75 175.5" height="234" preserveAspectRatio="xMidYMid meet" version="1.0"><defs><g/><clipPath id="9101b1a640"><path d="M 295 37 L 379 37 L 379 133 L 295 133 Z M 295 37 " clip-rule="nonzero"/></clipPath><clipPath id="97be126047"><path d="M 302.511719 23.355469 L 383.601562 43.273438 L 359.039062 143.28125 L 277.949219 123.367188 Z M 302.511719 23.355469 " clip-rule="nonzero"/></clipPath><clipPath id="48756bb8af"><path d="M 302.511719 23.355469 L 383.601562 43.273438 L 359.039062 143.28125 L 277.949219 123.367188 Z M 302.511719 23.355469 " clip-rule="nonzero"/></clipPath><clipPath id="c54f1485ca"><path d="M 302.503906 23.386719 L 383.398438 43.25 L 358.886719 143.058594 L 277.992188 123.191406 Z M 302.503906 23.386719 " clip-rule="nonzero"/></clipPath><clipPath id="6bed1cfd3f"><path d="M 302.503906 23.386719 L 383.382812 43.246094 L 358.875 143.046875 L 277.996094 123.183594 Z M 302.503906 23.386719 " clip-rule="nonzero"/></clipPath><clipPath id="a89b575bfe"><path d="M 296 38 L 378 38 L 378 132 L 296 132 Z M 296 38 " clip-rule="nonzero"/></clipPath><clipPath id="dfd186f8b2"><path d="M 303.453125 24.492188 L 382.628906 44.414062 L 358.179688 141.585938 L 279.003906 121.664062 Z M 303.453125 24.492188 " clip-rule="nonzero"/></clipPath><clipPath id="e1bcef7a00"><path d="M 303.453125 24.492188 L 382.628906 44.414062 L 358.179688 141.585938 L 279.003906 121.664062 Z M 303.453125 24.492188 " clip-rule="nonzero"/></clipPath><clipPath id="4099201337"><path d="M 303.445312 24.523438 L 382.480469 44.40625 L 357.945312 141.921875 L 278.910156 122.039062 Z M 303.445312 24.523438 " clip-rule="nonzero"/></clipPath><clipPath id="68fe601106"><path d="M 303.445312 24.523438 L 382.464844 44.402344 L 357.933594 141.914062 L 278.910156 122.03125 Z M 303.445312 24.523438 " clip-rule="nonzero"/></clipPath><clipPath id="21c9069e55"><path d="M 296 39 L 377 39 L 377 132 L 296 132 Z M 296 39 " clip-rule="nonzero"/></clipPath><clipPath id="1f6316ecaf"><path d="M 303.257812 25.421875 L 381.535156 45.117188 L 357.085938 142.289062 L 278.808594 122.59375 Z M 303.257812 25.421875 " clip-rule="nonzero"/></clipPath><clipPath id="d78d41fd91"><path d="M 303.257812 25.421875 L 381.535156 45.117188 L 357.085938 142.289062 L 278.808594 122.59375 Z M 303.257812 25.421875 " clip-rule="nonzero"/></clipPath><clipPath id="4761ad6264"><path d="M 303.253906 25.445312 L 381.667969 45.175781 L 357.324219 141.925781 L 278.910156 122.199219 Z M 303.253906 25.445312 " clip-rule="nonzero"/></clipPath><clipPath id="0660137a0b"><path d="M 303.253906 25.445312 L 381.65625 45.171875 L 357.3125 141.917969 L 278.910156 122.191406 Z M 303.253906 25.445312 " clip-rule="nonzero"/></clipPath></defs><g clip-path="url(#9101b1a640)"><g clip-path="url(#97be126047)"><g clip-path="url(#48756bb8af)"><g clip-path="url(#c54f1485ca)"><g clip-path="url(#6bed1cfd3f)"><path fill="#fcccc4" d="M 377.832031 65.832031 L 377.902344 65.503906 L 377.941406 65.335938 C 377.953125 65.28125 377.960938 65.226562 377.972656 65.171875 L 378.101562 64.507812 C 378.257812 63.617188 378.371094 62.71875 378.445312 61.816406 L 378.488281 61.136719 C 378.492188 61.078125 378.492188 61.023438 378.496094 60.964844 L 378.5 60.796875 L 378.511719 60.457031 L 378.519531 60.285156 L 378.519531 59.394531 L 378.515625 59.351562 L 378.515625 59.265625 L 378.507812 59.09375 L 378.496094 58.753906 L 378.492188 58.585938 L 378.484375 58.5 L 378.480469 58.414062 L 378.433594 57.734375 C 378.386719 57.285156 378.34375 56.832031 378.273438 56.382812 L 378.226562 56.042969 C 378.21875 55.988281 378.207031 55.933594 378.199219 55.875 L 378.105469 55.371094 C 378.085938 55.261719 378.066406 55.148438 378.039062 55.039062 L 377.96875 54.703125 C 377.945312 54.59375 377.921875 54.480469 377.890625 54.371094 L 377.808594 54.039062 L 377.769531 53.871094 C 377.753906 53.816406 377.738281 53.761719 377.722656 53.707031 C 377.484375 52.828125 377.191406 51.96875 376.847656 51.125 C 376.164062 49.445312 375.285156 47.851562 374.234375 46.382812 C 373.183594 44.910156 371.960938 43.566406 370.589844 42.390625 C 369.21875 41.214844 367.703125 40.207031 366.074219 39.425781 C 365.261719 39.03125 364.417969 38.695312 363.558594 38.425781 C 362.699219 38.152344 361.820312 37.9375 360.9375 37.785156 C 359.167969 37.476562 357.363281 37.40625 355.585938 37.570312 C 353.804688 37.730469 352.050781 38.128906 350.382812 38.753906 C 348.714844 39.382812 347.132812 40.246094 345.722656 41.332031 C 345.015625 41.875 344.351562 42.472656 343.742188 43.117188 C 343.132812 43.761719 342.578125 44.453125 342.074219 45.179688 C 341.066406 46.632812 340.28125 48.226562 339.734375 49.894531 C 339.191406 51.5625 338.886719 53.308594 338.859375 55.054688 C 338.855469 55.144531 338.855469 55.238281 338.855469 55.328125 L 338.75 55.03125 L 338.703125 54.90625 L 338.652344 54.78125 L 338.457031 54.28125 L 338.351562 54.03125 L 338.25 53.785156 L 338.195312 53.660156 C 338.179688 53.617188 338.160156 53.578125 338.140625 53.535156 L 337.917969 53.046875 C 337.839844 52.882812 337.757812 52.722656 337.679688 52.558594 C 337.601562 52.398438 337.519531 52.238281 337.433594 52.078125 C 336.097656 49.523438 334.320312 47.179688 332.183594 45.175781 C 331.644531 44.679688 331.085938 44.207031 330.507812 43.75 L 330.070312 43.417969 C 330.03125 43.390625 329.996094 43.363281 329.957031 43.335938 L 329.847656 43.253906 L 329.621094 43.09375 L 329.507812 43.011719 L 329.453125 42.972656 L 329.394531 42.933594 L 329.167969 42.777344 C 329.015625 42.675781 328.863281 42.570312 328.707031 42.472656 C 328.550781 42.375 328.394531 42.273438 328.238281 42.175781 L 327.761719 41.890625 C 327.722656 41.867188 327.683594 41.84375 327.640625 41.820312 L 327.519531 41.753906 L 327.277344 41.617188 L 327.035156 41.484375 L 326.542969 41.226562 L 326.421875 41.164062 C 326.378906 41.140625 326.335938 41.121094 326.296875 41.101562 L 325.796875 40.859375 C 325.460938 40.703125 325.121094 40.546875 324.78125 40.410156 C 322.035156 39.28125 319.089844 38.621094 316.105469 38.457031 C 315.359375 38.417969 314.609375 38.40625 313.859375 38.417969 L 313.296875 38.433594 C 313.25 38.433594 313.203125 38.4375 313.15625 38.4375 L 313.015625 38.445312 L 312.730469 38.460938 L 312.589844 38.464844 L 312.519531 38.46875 L 312.449219 38.476562 L 312.167969 38.496094 C 311.980469 38.511719 311.792969 38.523438 311.605469 38.546875 C 310.855469 38.613281 310.105469 38.722656 309.359375 38.855469 L 309.078125 38.910156 L 308.9375 38.933594 L 308.800781 38.964844 L 308.242188 39.085938 C 307.871094 39.175781 307.5 39.261719 307.132812 39.367188 L 306.859375 39.445312 C 306.8125 39.457031 306.765625 39.472656 306.722656 39.488281 L 306.175781 39.660156 L 306.105469 39.683594 L 306.039062 39.707031 L 305.765625 39.800781 C 305.675781 39.832031 305.585938 39.867188 305.492188 39.902344 C 305.3125 39.964844 305.132812 40.039062 304.953125 40.109375 C 304.863281 40.148438 304.773438 40.1875 304.683594 40.222656 L 304.152344 40.457031 L 303.890625 40.585938 C 303.847656 40.605469 303.800781 40.625 303.757812 40.648438 L 303.628906 40.714844 C 303.542969 40.757812 303.453125 40.800781 303.367188 40.847656 C 303.195312 40.9375 303.023438 41.03125 302.851562 41.128906 C 302.511719 41.320312 302.175781 41.527344 301.847656 41.746094 L 301.601562 41.910156 C 301.519531 41.964844 301.441406 42.023438 301.359375 42.082031 L 301.238281 42.167969 C 301.199219 42.195312 301.160156 42.226562 301.121094 42.257812 L 300.882812 42.4375 C 300.253906 42.925781 299.65625 43.460938 299.105469 44.058594 C 298.964844 44.203125 298.832031 44.359375 298.699219 44.511719 C 298.632812 44.589844 298.566406 44.667969 298.503906 44.746094 L 298.40625 44.863281 L 298.3125 44.984375 C 298.25 45.066406 298.1875 45.148438 298.125 45.230469 L 297.945312 45.476562 C 297.886719 45.558594 297.832031 45.648438 297.773438 45.730469 L 297.6875 45.859375 L 297.644531 45.921875 L 297.601562 45.988281 L 297.441406 46.25 C 297.414062 46.292969 297.386719 46.339844 297.363281 46.382812 L 297.285156 46.519531 L 297.207031 46.652344 C 297.183594 46.695312 297.160156 46.742188 297.136719 46.789062 L 296.992188 47.0625 L 296.855469 47.34375 C 296.835938 47.390625 296.8125 47.433594 296.789062 47.480469 L 296.726562 47.625 L 296.667969 47.765625 C 296.644531 47.8125 296.625 47.859375 296.605469 47.910156 L 296.492188 48.199219 L 296.464844 48.269531 L 296.441406 48.34375 L 296.390625 48.492188 C 296.355469 48.589844 296.320312 48.683594 296.289062 48.785156 L 296.199219 49.085938 C 296.183594 49.136719 296.171875 49.1875 296.160156 49.238281 L 296.121094 49.386719 L 296.082031 49.539062 C 296.070312 49.589844 296.058594 49.640625 296.046875 49.691406 L 295.984375 49.996094 C 295.964844 50.097656 295.949219 50.199219 295.933594 50.300781 L 295.90625 50.453125 L 295.886719 50.605469 C 295.875 50.707031 295.863281 50.808594 295.851562 50.910156 L 295.824219 51.21875 L 295.820312 51.292969 L 295.816406 51.332031 L 295.816406 51.371094 L 295.800781 51.675781 C 295.800781 51.726562 295.796875 51.777344 295.796875 51.828125 L 295.796875 52.28125 L 295.804688 52.433594 L 295.808594 52.585938 C 295.8125 52.609375 295.8125 52.636719 295.8125 52.660156 L 295.820312 52.734375 L 295.84375 53.035156 C 295.84375 53.085938 295.851562 53.136719 295.859375 53.183594 L 295.875 53.335938 L 295.894531 53.484375 C 295.898438 53.53125 295.90625 53.582031 295.914062 53.632812 L 295.960938 53.925781 C 295.980469 54.023438 296 54.121094 296.019531 54.21875 L 296.046875 54.363281 L 296.082031 54.507812 C 296.105469 54.605469 296.125 54.703125 296.148438 54.796875 L 296.230469 55.082031 C 296.242188 55.128906 296.253906 55.175781 296.269531 55.222656 L 296.316406 55.363281 C 296.429688 55.738281 296.574219 56.105469 296.726562 56.460938 L 296.847656 56.726562 C 296.867188 56.769531 296.890625 56.8125 296.910156 56.855469 L 296.976562 56.988281 C 297.0625 57.160156 297.160156 57.328125 297.253906 57.496094 C 297.300781 57.578125 297.351562 57.660156 297.402344 57.742188 L 297.476562 57.867188 C 297.503906 57.90625 297.53125 57.945312 297.558594 57.988281 L 297.714844 58.226562 L 297.886719 58.457031 C 297.914062 58.496094 297.941406 58.535156 297.96875 58.570312 L 298.148438 58.796875 L 298.191406 58.851562 C 298.207031 58.871094 298.222656 58.886719 298.238281 58.90625 C 298.363281 59.050781 298.484375 59.195312 298.613281 59.328125 L 298.710938 59.433594 L 298.761719 59.484375 L 298.8125 59.53125 L 299.015625 59.726562 C 299.03125 59.742188 299.046875 59.761719 299.066406 59.777344 L 299.117188 59.824219 L 299.222656 59.914062 C 299.292969 59.976562 299.363281 60.039062 299.4375 60.097656 L 299.65625 60.269531 C 299.726562 60.324219 299.804688 60.378906 299.878906 60.433594 L 299.992188 60.511719 C 300.03125 60.539062 300.070312 60.5625 300.109375 60.589844 L 300.339844 60.738281 L 300.621094 60.4375 C 300.230469 59.855469 299.894531 59.257812 299.621094 58.644531 C 299.550781 58.492188 299.492188 58.335938 299.429688 58.183594 C 299.421875 58.164062 299.414062 58.144531 299.40625 58.125 L 299.382812 58.066406 L 299.296875 57.832031 C 299.285156 57.796875 299.273438 57.753906 299.257812 57.714844 L 299.179688 57.484375 L 299.109375 57.246094 C 299.101562 57.207031 299.085938 57.167969 299.078125 57.128906 L 299.046875 57.011719 C 299.027344 56.933594 299.003906 56.855469 298.984375 56.777344 C 298.949219 56.617188 298.910156 56.460938 298.882812 56.300781 L 298.859375 56.183594 C 298.851562 56.144531 298.84375 56.105469 298.835938 56.066406 L 298.796875 55.828125 C 298.753906 55.511719 298.714844 55.199219 298.699219 54.882812 L 298.6875 54.765625 C 298.6875 54.726562 298.6875 54.6875 298.683594 54.648438 L 298.675781 54.414062 L 298.675781 54.066406 L 298.6875 53.714844 L 298.699219 53.484375 C 298.703125 53.445312 298.703125 53.410156 298.707031 53.371094 L 298.71875 53.257812 L 298.730469 53.140625 C 298.734375 53.105469 298.738281 53.066406 298.742188 53.027344 L 298.773438 52.800781 L 298.78125 52.746094 C 298.78125 52.726562 298.785156 52.707031 298.789062 52.691406 L 298.808594 52.578125 L 298.824219 52.464844 L 298.835938 52.410156 L 298.84375 52.355469 L 298.890625 52.132812 C 298.894531 52.097656 298.90625 52.0625 298.914062 52.023438 L 298.9375 51.914062 L 298.964844 51.804688 L 298.972656 51.777344 L 298.976562 51.753906 L 298.992188 51.699219 L 299.050781 51.484375 C 299.070312 51.414062 299.09375 51.34375 299.117188 51.273438 L 299.148438 51.167969 L 299.183594 51.066406 L 299.257812 50.859375 L 299.339844 50.65625 C 299.351562 50.621094 299.363281 50.585938 299.378906 50.554688 L 299.421875 50.457031 L 299.464844 50.355469 C 299.480469 50.324219 299.492188 50.289062 299.507812 50.257812 L 299.601562 50.066406 C 299.632812 50 299.667969 49.9375 299.703125 49.871094 L 299.75 49.777344 L 299.777344 49.726562 L 299.804688 49.679688 L 299.910156 49.492188 C 299.929688 49.460938 299.949219 49.429688 299.96875 49.398438 L 300.023438 49.304688 L 300.082031 49.210938 C 300.101562 49.179688 300.121094 49.152344 300.140625 49.121094 L 300.261719 48.9375 L 300.386719 48.761719 C 300.40625 48.730469 300.425781 48.699219 300.449219 48.671875 L 300.515625 48.585938 L 300.582031 48.496094 C 300.601562 48.46875 300.625 48.4375 300.648438 48.410156 L 300.785156 48.238281 L 300.816406 48.195312 L 300.855469 48.15625 L 300.925781 48.070312 C 300.972656 48.015625 301.019531 47.957031 301.070312 47.90625 L 301.214844 47.742188 C 301.265625 47.6875 301.316406 47.632812 301.367188 47.582031 L 301.445312 47.5 L 301.523438 47.421875 C 301.574219 47.371094 301.625 47.316406 301.679688 47.265625 C 301.789062 47.164062 301.894531 47.058594 302.003906 46.960938 C 302.445312 46.558594 302.921875 46.1875 303.414062 45.832031 L 303.605469 45.703125 C 303.636719 45.683594 303.664062 45.660156 303.699219 45.636719 L 303.792969 45.574219 C 303.859375 45.53125 303.921875 45.488281 303.984375 45.449219 L 304.179688 45.324219 C 304.4375 45.160156 304.703125 44.996094 304.972656 44.84375 C 305.105469 44.765625 305.242188 44.691406 305.378906 44.613281 C 305.449219 44.578125 305.515625 44.542969 305.585938 44.503906 L 305.6875 44.449219 C 305.722656 44.429688 305.757812 44.414062 305.792969 44.394531 L 306 44.285156 L 306.210938 44.179688 L 306.316406 44.128906 L 306.425781 44.078125 L 306.636719 43.976562 C 306.78125 43.910156 306.921875 43.839844 307.070312 43.777344 C 307.140625 43.746094 307.210938 43.714844 307.285156 43.683594 L 307.613281 43.542969 L 307.726562 43.496094 L 307.949219 43.40625 L 308.058594 43.359375 C 308.097656 43.34375 308.132812 43.328125 308.171875 43.316406 L 308.398438 43.230469 C 308.695312 43.113281 309 43.007812 309.304688 42.902344 L 309.765625 42.75 L 309.878906 42.714844 L 310.230469 42.609375 C 310.851562 42.429688 311.480469 42.269531 312.121094 42.144531 C 312.28125 42.109375 312.441406 42.085938 312.601562 42.054688 L 312.84375 42.015625 L 312.90625 42.003906 L 312.964844 41.996094 L 313.085938 41.976562 L 313.328125 41.941406 L 313.449219 41.921875 C 313.492188 41.917969 313.53125 41.910156 313.570312 41.90625 L 314.058594 41.851562 C 314.710938 41.785156 315.367188 41.746094 316.023438 41.738281 C 318.652344 41.710938 321.304688 42.121094 323.820312 42.964844 C 324.136719 43.066406 324.449219 43.179688 324.761719 43.292969 L 325.226562 43.472656 C 325.265625 43.488281 325.304688 43.503906 325.34375 43.519531 L 325.457031 43.570312 L 325.6875 43.664062 L 325.917969 43.761719 L 326.144531 43.867188 L 326.371094 43.96875 L 326.484375 44.023438 C 326.523438 44.039062 326.558594 44.058594 326.597656 44.078125 L 327.042969 44.296875 C 327.191406 44.375 327.339844 44.453125 327.488281 44.53125 C 327.636719 44.605469 327.78125 44.691406 327.925781 44.773438 L 328.144531 44.894531 L 328.199219 44.925781 L 328.25 44.957031 L 328.359375 45.023438 L 328.574219 45.152344 L 328.679688 45.21875 C 328.71875 45.238281 328.753906 45.261719 328.789062 45.285156 L 329.210938 45.554688 C 329.769531 45.925781 330.316406 46.320312 330.847656 46.734375 C 332.96875 48.394531 334.828125 50.429688 336.324219 52.726562 C 337.589844 54.675781 338.597656 56.808594 339.285156 59.0625 C 339.375 59.429688 339.476562 59.792969 339.59375 60.152344 C 339.605469 60.199219 339.617188 60.246094 339.625 60.289062 L 340.03125 60.214844 C 339.9375 59.511719 339.8125 58.8125 339.660156 58.113281 L 339.550781 57.65625 C 339.464844 56.796875 339.449219 55.9375 339.503906 55.078125 C 339.609375 53.402344 339.972656 51.746094 340.558594 50.183594 C 341.144531 48.617188 341.953125 47.140625 342.953125 45.8125 C 343.949219 44.488281 345.140625 43.316406 346.484375 42.367188 C 347.832031 41.414062 349.320312 40.671875 350.878906 40.152344 C 352.4375 39.632812 354.070312 39.328125 355.707031 39.238281 C 357.34375 39.152344 358.992188 39.277344 360.585938 39.617188 C 361.382812 39.785156 362.167969 40.003906 362.933594 40.28125 C 363.695312 40.554688 364.4375 40.878906 365.15625 41.257812 C 366.589844 42.011719 367.921875 42.957031 369.117188 44.054688 C 370.3125 45.148438 371.371094 46.394531 372.269531 47.742188 C 373.164062 49.089844 373.90625 50.542969 374.460938 52.054688 C 374.742188 52.808594 374.972656 53.582031 375.160156 54.363281 C 375.171875 54.410156 375.183594 54.460938 375.195312 54.507812 L 375.226562 54.65625 L 375.289062 54.949219 C 375.3125 55.046875 375.328125 55.148438 375.347656 55.246094 L 375.402344 55.539062 C 375.421875 55.640625 375.433594 55.738281 375.449219 55.839844 L 375.492188 56.136719 L 375.515625 56.285156 C 375.519531 56.335938 375.53125 56.382812 375.535156 56.433594 L 375.566406 56.734375 C 375.621094 57.132812 375.644531 57.535156 375.675781 57.9375 L 375.699219 58.539062 L 375.703125 58.613281 L 375.707031 58.652344 L 375.707031 58.839844 L 375.710938 59.144531 L 375.710938 59.445312 L 375.703125 59.746094 L 375.695312 60.050781 L 375.691406 60.125 L 375.691406 60.199219 L 375.679688 60.351562 L 375.664062 60.652344 L 375.652344 60.804688 C 375.648438 60.855469 375.648438 60.90625 375.644531 60.953125 L 375.585938 61.558594 C 375.5 62.359375 375.375 63.160156 375.214844 63.953125 L 375.085938 64.546875 C 375.074219 64.597656 375.0625 64.648438 375.050781 64.695312 L 375.015625 64.84375 L 374.941406 65.136719 C 374.914062 65.238281 374.890625 65.335938 374.863281 65.433594 L 374.699219 66.019531 C 374.6875 66.066406 374.671875 66.117188 374.65625 66.164062 L 374.613281 66.3125 L 374.429688 66.890625 L 374.234375 67.46875 L 374.183594 67.613281 L 374.128906 67.757812 L 373.917969 68.328125 L 373.804688 68.613281 L 373.6875 68.894531 L 373.632812 69.039062 L 373.570312 69.179688 L 373.328125 69.738281 C 373.15625 70.109375 372.988281 70.480469 372.804688 70.84375 L 372.667969 71.121094 C 372.648438 71.167969 372.625 71.210938 372.597656 71.257812 L 372.527344 71.390625 L 372.386719 71.664062 C 372.339844 71.753906 372.292969 71.84375 372.242188 71.933594 L 371.945312 72.46875 L 371.90625 72.535156 L 371.871094 72.601562 L 371.558594 73.132812 C 371.535156 73.175781 371.507812 73.21875 371.480469 73.261719 L 371.320312 73.523438 C 371.210938 73.699219 371.105469 73.875 370.992188 74.042969 L 370.660156 74.558594 L 370.3125 75.066406 C 369.847656 75.738281 369.359375 76.394531 368.847656 77.035156 C 368.332031 77.671875 367.800781 78.289062 367.242188 78.898438 L 366.820312 79.347656 L 366.765625 79.40625 L 366.714844 79.460938 L 366.605469 79.570312 L 366.390625 79.792969 L 366.285156 79.90625 C 366.246094 79.941406 366.210938 79.976562 366.175781 80.015625 L 365.957031 80.234375 C 365.808594 80.378906 365.664062 80.523438 365.515625 80.667969 C 364.921875 81.242188 364.3125 81.796875 363.6875 82.34375 C 363.378906 82.617188 363.058594 82.882812 362.742188 83.152344 L 362.261719 83.546875 C 362.183594 83.613281 362.101562 83.675781 362.019531 83.742188 L 361.777344 83.933594 L 361.53125 84.128906 L 361.039062 84.511719 L 360.917969 84.609375 L 360.792969 84.703125 L 360.296875 85.078125 L 359.792969 85.449219 C 359.121094 85.941406 358.441406 86.425781 357.75 86.898438 C 357.058594 87.371094 356.359375 87.832031 355.65625 88.289062 C 352.835938 90.113281 349.917969 91.828125 346.976562 93.5625 C 344.035156 95.296875 341.070312 97.058594 338.160156 98.960938 C 337.976562 99.078125 337.796875 99.195312 337.613281 99.316406 L 337.070312 99.679688 C 336.710938 99.921875 336.347656 100.164062 335.992188 100.414062 C 335.273438 100.90625 334.558594 101.410156 333.851562 101.925781 C 333.761719 101.992188 333.671875 102.054688 333.585938 102.121094 L 333.320312 102.316406 C 333.144531 102.449219 332.96875 102.578125 332.796875 102.710938 L 332.273438 103.109375 L 331.753906 103.515625 C 331.0625 104.058594 330.378906 104.613281 329.707031 105.183594 C 329.035156 105.753906 328.378906 106.339844 327.730469 106.941406 L 327.25 107.394531 L 326.773438 107.859375 L 326.652344 107.972656 C 326.613281 108.011719 326.574219 108.050781 326.535156 108.089844 L 326.066406 108.558594 C 325.992188 108.640625 325.914062 108.71875 325.835938 108.800781 L 325.605469 109.039062 C 325.527344 109.117188 325.453125 109.199219 325.375 109.28125 L 324.925781 109.769531 C 324.773438 109.933594 324.628906 110.097656 324.480469 110.265625 C 324.332031 110.429688 324.1875 110.597656 324.042969 110.765625 L 323.828125 111.019531 L 323.71875 111.144531 L 323.613281 111.273438 C 323.472656 111.445312 323.332031 111.617188 323.191406 111.789062 L 322.777344 112.308594 C 322.707031 112.394531 322.640625 112.484375 322.574219 112.574219 L 322.375 112.835938 C 322.308594 112.925781 322.238281 113.015625 322.171875 113.101562 L 321.78125 113.640625 L 321.683594 113.777344 L 321.589844 113.910156 L 321.210938 114.457031 L 320.84375 115.011719 L 320.75 115.148438 C 320.71875 115.195312 320.691406 115.242188 320.660156 115.289062 L 320.484375 115.570312 L 320.304688 115.851562 C 320.246094 115.945312 320.191406 116.042969 320.132812 116.136719 L 319.960938 116.421875 C 319.90625 116.515625 319.847656 116.609375 319.792969 116.707031 L 319.464844 117.285156 C 319.035156 118.058594 318.628906 118.847656 318.257812 119.648438 L 317.984375 120.253906 C 317.9375 120.355469 317.898438 120.457031 317.855469 120.558594 L 317.726562 120.867188 C 317.683594 120.96875 317.640625 121.070312 317.601562 121.171875 L 317.359375 121.789062 C 317.339844 121.84375 317.320312 121.894531 317.300781 121.945312 L 317.246094 122.101562 C 317.171875 122.308594 317.097656 122.515625 317.023438 122.726562 L 316.820312 123.355469 C 316.804688 123.410156 316.785156 123.460938 316.769531 123.511719 L 316.722656 123.671875 L 316.628906 123.988281 C 316.597656 124.09375 316.566406 124.199219 316.539062 124.308594 L 316.453125 124.625 L 316.371094 124.945312 C 316.355469 125 316.339844 125.050781 316.328125 125.105469 L 316.292969 125.265625 C 316.242188 125.480469 316.191406 125.695312 316.144531 125.910156 L 316.015625 126.558594 C 316.003906 126.613281 315.992188 126.664062 315.984375 126.71875 L 315.957031 126.882812 L 315.902344 127.207031 C 315.882812 127.316406 315.867188 127.421875 315.847656 127.53125 L 315.804688 127.859375 L 315.761719 128.183594 C 315.753906 128.238281 315.746094 128.292969 315.742188 128.347656 L 315.726562 128.511719 C 315.703125 128.726562 315.679688 128.945312 315.660156 129.164062 L 315.617188 129.816406 C 315.574219 130.691406 315.578125 131.5625 315.625 132.425781 L 316.035156 132.4375 C 316.140625 131.589844 316.277344 130.753906 316.453125 129.925781 L 316.589844 129.308594 L 316.742188 128.695312 L 316.78125 128.542969 C 316.792969 128.492188 316.808594 128.441406 316.824219 128.390625 L 316.910156 128.085938 L 316.996094 127.785156 C 317.027344 127.683594 317.058594 127.582031 317.089844 127.484375 L 317.183594 127.183594 L 317.230469 127.03125 C 317.246094 126.984375 317.265625 126.933594 317.28125 126.882812 L 317.484375 126.289062 L 317.703125 125.703125 L 317.757812 125.554688 C 317.777344 125.507812 317.796875 125.457031 317.816406 125.410156 L 317.933594 125.117188 L 318.050781 124.828125 C 318.09375 124.734375 318.136719 124.636719 318.175781 124.542969 L 318.363281 124.109375 C 318.382812 124.0625 318.40625 124.015625 318.429688 123.96875 L 318.691406 123.402344 C 318.785156 123.214844 318.878906 123.03125 318.96875 122.84375 L 319.039062 122.703125 C 319.0625 122.65625 319.085938 122.609375 319.109375 122.566406 L 319.257812 122.289062 L 319.402344 122.011719 C 319.449219 121.921875 319.503906 121.832031 319.550781 121.738281 L 319.703125 121.46875 C 319.753906 121.375 319.804688 121.285156 319.859375 121.195312 L 320.171875 120.660156 C 320.601562 119.945312 321.054688 119.25 321.527344 118.570312 L 321.886719 118.0625 C 321.945312 117.976562 322.007812 117.894531 322.070312 117.808594 L 322.253906 117.558594 C 322.316406 117.476562 322.378906 117.394531 322.441406 117.3125 L 322.628906 117.066406 L 322.820312 116.820312 C 322.851562 116.777344 322.882812 116.738281 322.914062 116.695312 L 323.402344 116.089844 L 323.800781 115.613281 L 323.898438 115.496094 L 324 115.378906 L 324.207031 115.144531 L 324.410156 114.910156 C 324.476562 114.832031 324.546875 114.753906 324.617188 114.675781 L 324.824219 114.445312 C 324.894531 114.371094 324.960938 114.292969 325.035156 114.21875 L 325.457031 113.765625 C 325.597656 113.613281 325.746094 113.464844 325.886719 113.316406 L 325.996094 113.207031 L 326.050781 113.148438 L 326.324219 112.875 C 326.46875 112.730469 326.617188 112.582031 326.765625 112.441406 C 326.914062 112.296875 327.0625 112.152344 327.210938 112.011719 L 327.667969 111.585938 C 327.742188 111.515625 327.820312 111.449219 327.894531 111.378906 L 328.125 111.171875 C 328.203125 111.101562 328.277344 111.03125 328.355469 110.964844 L 328.589844 110.757812 L 328.824219 110.554688 C 328.863281 110.519531 328.902344 110.484375 328.941406 110.453125 L 329.0625 110.351562 L 329.535156 109.949219 L 330.015625 109.550781 C 330.660156 109.027344 331.316406 108.511719 331.980469 108.011719 C 334.640625 106.003906 337.457031 104.183594 340.347656 102.433594 C 343.238281 100.683594 346.199219 99 349.152344 97.246094 C 352.113281 95.492188 355.0625 93.664062 357.929688 91.660156 C 358.644531 91.15625 359.351562 90.644531 360.054688 90.121094 C 360.757812 89.59375 361.453125 89.058594 362.140625 88.507812 L 362.65625 88.09375 L 363.164062 87.671875 L 363.292969 87.566406 L 363.417969 87.460938 L 363.671875 87.246094 L 363.921875 87.03125 L 364.171875 86.8125 L 364.421875 86.597656 C 364.503906 86.523438 364.589844 86.453125 364.671875 86.378906 L 365.164062 85.9375 C 365.492188 85.636719 365.816406 85.339844 366.136719 85.03125 C 366.78125 84.421875 367.410156 83.800781 368.023438 83.15625 C 368.179688 82.996094 368.328125 82.832031 368.480469 82.671875 L 368.707031 82.425781 C 368.746094 82.386719 368.78125 82.34375 368.820312 82.304688 L 368.933594 82.179688 L 369.15625 81.933594 L 369.320312 81.746094 L 369.378906 81.683594 L 369.816406 81.179688 C 370.390625 80.503906 370.957031 79.804688 371.496094 79.09375 C 372.035156 78.378906 372.546875 77.644531 373.039062 76.894531 L 373.402344 76.332031 L 373.753906 75.757812 C 373.871094 75.570312 373.980469 75.375 374.09375 75.179688 L 374.265625 74.890625 C 374.292969 74.84375 374.320312 74.792969 374.347656 74.742188 L 374.425781 74.597656 L 374.589844 74.300781 L 374.667969 74.15625 L 374.710938 74.082031 L 374.75 74.007812 L 375.058594 73.410156 C 375.113281 73.3125 375.160156 73.210938 375.207031 73.109375 L 375.355469 72.808594 L 375.429688 72.65625 C 375.453125 72.605469 375.480469 72.558594 375.503906 72.503906 L 375.644531 72.199219 C 375.835938 71.792969 376.007812 71.378906 376.1875 70.96875 L 376.5 70.1875 L 376.558594 70.027344 L 376.792969 69.398438 L 377.066406 68.597656 L 377.117188 68.4375 L 377.316406 67.792969 L 377.503906 67.144531 L 377.546875 66.980469 C 377.5625 66.925781 377.574219 66.871094 377.589844 66.816406 L 377.671875 66.492188 L 377.753906 66.164062 C 377.78125 66.054688 377.804688 65.941406 377.832031 65.832031 " fill-opacity="1" fill-rule="nonzero"/></g></g></g></g></g><g fill="#5c646b" fill-opacity="1"><g transform="translate(45.029797, 98.903707)"><g><path d="M 4.167969 0 L 42.179688 0 L 42.75 -9.238281 L 41.851562 -9.402344 C 38.992188 -3.269531 35.394531 -1.308594 27.546875 -1.308594 L 17.820312 -1.308594 C 15.449219 -1.308594 14.140625 -2.617188 14.140625 -4.984375 L 14.140625 -46.839844 C 14.140625 -53.542969 14.878906 -55.421875 17.410156 -56.15625 L 17.410156 -57.21875 L 4.167969 -57.21875 L 4.167969 -56.15625 C 6.621094 -55.421875 7.4375 -53.542969 7.4375 -46.839844 L 7.4375 -10.382812 C 7.4375 -3.679688 6.621094 -1.796875 4.167969 -1.0625 Z M 4.167969 0 "/></g></g></g><g fill="#5c646b" fill-opacity="1"><g transform="translate(91.04702, 98.903707)"><g><path d="M 24.359375 0.816406 C 34.003906 0.816406 45.695312 -6.703125 45.695312 -20.679688 C 45.695312 -35.230469 34.496094 -41.445312 24.359375 -41.445312 C 13.160156 -41.445312 2.941406 -32.617188 2.941406 -19.863281 C 2.941406 -5.640625 13.976562 0.816406 24.359375 0.816406 Z M 9.238281 -24.523438 C 9.238281 -32.695312 12.996094 -39.5625 21.335938 -39.890625 C 32.042969 -40.460938 39.480469 -26.402344 39.480469 -15.859375 C 39.480469 -7.929688 35.558594 -0.898438 26.8125 -0.898438 C 15.941406 -0.898438 9.238281 -14.140625 9.238281 -24.523438 Z M 9.238281 -24.523438 "/></g></g></g><g fill="#5c646b" fill-opacity="1"><g transform="translate(141.886611, 98.903707)"><g><path d="M 5.3125 -31.308594 L 18.390625 0 L 21.824219 0 L 33.839844 -31.144531 C 36.210938 -37.4375 37.519531 -39.074219 39.808594 -39.808594 L 39.808594 -40.871094 L 31.390625 -40.871094 L 31.390625 -39.808594 C 34.25 -39.238281 34.578125 -36.539062 32.535156 -31.144531 L 22.886719 -5.96875 L 12.179688 -31.308594 C 9.5625 -37.4375 8.910156 -39.074219 11.363281 -39.808594 L 11.363281 -40.871094 L -0.410156 -40.871094 L -0.410156 -39.808594 C 1.308594 -39.074219 2.777344 -37.4375 5.3125 -31.308594 Z M 5.3125 -31.308594 "/></g></g></g><g fill="#5c646b" fill-opacity="1"><g transform="translate(182.918008, 98.903707)"><g><path d="M 4.167969 0 L 44.46875 0 L 45.121094 -10.871094 L 44.222656 -11.035156 C 41.28125 -3.433594 36.292969 -1.226562 28.445312 -1.226562 L 17.820312 -1.226562 C 15.449219 -1.226562 14.140625 -2.535156 14.140625 -4.90625 L 14.140625 -30 L 24.605469 -30 C 33.921875 -30 36.292969 -28.121094 37.273438 -24.441406 L 38.253906 -24.441406 L 38.253906 -36.785156 L 37.273438 -36.785156 C 36.292969 -33.105469 33.921875 -31.226562 24.605469 -31.226562 L 14.140625 -31.226562 L 14.140625 -55.992188 L 26.15625 -55.992188 C 34.496094 -55.992188 39.320312 -53.542969 42.179688 -46.347656 L 43.078125 -46.59375 L 42.179688 -57.21875 L 4.167969 -57.21875 L 4.167969 -56.15625 C 6.621094 -55.421875 7.4375 -53.542969 7.4375 -46.839844 L 7.4375 -10.382812 C 7.4375 -3.679688 6.621094 -1.796875 4.167969 -1.0625 Z M 4.167969 0 "/></g></g></g><g fill="#5c646b" fill-opacity="1"><g transform="translate(232.695051, 98.903707)"><g><path d="M 3.105469 0 L 16.023438 0 L 16.023438 -1.0625 C 13.488281 -1.796875 12.75 -3.679688 12.75 -10.382812 L 12.75 -65.476562 L 12.015625 -66.046875 L 3.105469 -62.125 L 3.105469 -61.226562 C 5.3125 -60.246094 6.375 -59.425781 6.375 -53.707031 L 6.375 -10.382812 C 6.375 -3.679688 5.558594 -1.796875 3.105469 -1.0625 Z M 3.105469 0 "/></g></g></g><g fill="#5c646b" fill-opacity="1"><g transform="translate(253.701393, 98.903707)"><g><path d="M 3.105469 0 L 16.023438 0 L 16.023438 -1.0625 C 13.488281 -1.796875 12.75 -3.679688 12.75 -10.382812 L 12.75 -65.476562 L 12.015625 -66.046875 L 3.105469 -62.125 L 3.105469 -61.226562 C 5.3125 -60.246094 6.375 -59.425781 6.375 -53.707031 L 6.375 -10.382812 C 6.375 -3.679688 5.558594 -1.796875 3.105469 -1.0625 Z M 3.105469 0 "/></g></g></g><g fill="#5c646b" fill-opacity="1"><g transform="translate(274.707736, 98.903707)"><g><path d="M 2.617188 0 L 15.53125 0 L 15.53125 -1.0625 C 13.078125 -1.796875 12.261719 -3.679688 12.261719 -10.382812 L 12.261719 -40.953125 L 11.609375 -41.527344 L 2.617188 -37.601562 L 2.617188 -36.703125 C 4.90625 -35.722656 5.886719 -34.902344 5.886719 -29.183594 L 5.886719 -10.382812 C 5.886719 -3.679688 5.148438 -1.796875 2.617188 -1.0625 Z M 4.085938 -51.007812 C 4.085938 -48.554688 6.050781 -46.511719 8.582031 -46.511719 C 11.117188 -46.511719 13.078125 -48.554688 13.078125 -51.007812 C 13.078125 -53.625 11.199219 -55.585938 8.582031 -55.585938 C 6.050781 -55.585938 4.085938 -53.625 4.085938 -51.007812 Z M 4.085938 -51.007812 "/></g></g></g><g fill="#5c646b" fill-opacity="1"><g transform="translate(294.733264, 98.903707)"><g><path d="M 22.316406 0.816406 C 31.0625 0.816406 37.4375 -4.984375 41.605469 -10.707031 L 40.871094 -11.445312 C 37.113281 -7.195312 32.617188 -4.332031 26.320312 -4.332031 C 15.695312 -4.332031 8.746094 -12.015625 8.746094 -23.214844 C 8.746094 -24.523438 8.828125 -25.75 8.992188 -26.976562 L 40.953125 -26.976562 C 40.707031 -34.742188 34.742188 -41.445312 24.441406 -41.445312 C 12.996094 -41.445312 2.941406 -32.535156 2.941406 -19.210938 C 2.941406 -5.722656 13.324219 0.816406 22.316406 0.816406 Z M 9.238281 -28.039062 C 10.542969 -34.902344 14.796875 -40.054688 21.742188 -39.972656 C 29.183594 -39.972656 33.597656 -33.515625 34.414062 -28.039062 Z M 9.238281 -28.039062 "/></g></g></g><g clip-path="url(#a89b575bfe)"><g clip-path="url(#dfd186f8b2)"><g clip-path="url(#e1bcef7a00)"><g clip-path="url(#4099201337)"><g clip-path="url(#68fe601106)"><path fill="#f6c5bb" d="M 376.910156 66.46875 L 376.980469 66.148438 L 377.019531 65.984375 C 377.03125 65.933594 377.039062 65.878906 377.050781 65.824219 L 377.179688 65.171875 C 377.335938 64.304688 377.457031 63.425781 377.53125 62.542969 L 377.578125 61.878906 C 377.582031 61.824219 377.582031 61.769531 377.585938 61.710938 L 377.59375 61.546875 L 377.605469 61.214844 L 377.613281 61.046875 L 377.613281 60.882812 L 377.617188 60.546875 L 377.617188 60.132812 L 377.613281 60.046875 L 377.609375 59.882812 L 377.597656 59.550781 L 377.59375 59.382812 L 377.59375 59.339844 L 377.589844 59.300781 L 377.585938 59.214844 L 377.542969 58.550781 C 377.5 58.109375 377.460938 57.664062 377.394531 57.226562 L 377.351562 56.894531 C 377.34375 56.839844 377.332031 56.785156 377.324219 56.730469 L 377.292969 56.566406 L 377.234375 56.238281 C 377.214844 56.128906 377.199219 56.019531 377.175781 55.910156 L 377.105469 55.582031 C 377.082031 55.472656 377.058594 55.363281 377.03125 55.253906 L 376.953125 54.929688 L 376.914062 54.769531 C 376.902344 54.714844 376.882812 54.660156 376.871094 54.605469 C 376.640625 53.746094 376.359375 52.898438 376.03125 52.074219 C 375.371094 50.425781 374.519531 48.863281 373.496094 47.417969 C 372.476562 45.976562 371.289062 44.652344 369.953125 43.492188 C 368.621094 42.335938 367.140625 41.34375 365.554688 40.566406 C 364.757812 40.179688 363.933594 39.847656 363.097656 39.574219 C 362.257812 39.300781 361.402344 39.089844 360.535156 38.933594 C 358.804688 38.625 357.039062 38.542969 355.300781 38.695312 C 353.558594 38.84375 351.839844 39.21875 350.203125 39.824219 C 348.566406 40.429688 347.015625 41.265625 345.628906 42.320312 C 344.933594 42.847656 344.285156 43.429688 343.683594 44.058594 C 343.082031 44.683594 342.535156 45.355469 342.039062 46.066406 C 341.046875 47.480469 340.269531 49.035156 339.726562 50.664062 C 339.183594 52.292969 338.875 54 338.835938 55.707031 C 338.835938 55.796875 338.832031 55.886719 338.832031 55.976562 L 338.730469 55.6875 L 338.6875 55.5625 L 338.640625 55.441406 L 338.542969 55.195312 L 338.449219 54.949219 L 338.347656 54.703125 L 338.195312 54.339844 C 338.179688 54.300781 338.160156 54.257812 338.144531 54.21875 L 337.925781 53.738281 C 337.851562 53.578125 337.773438 53.421875 337.699219 53.261719 C 337.625 53.101562 337.542969 52.945312 337.460938 52.789062 C 336.167969 50.285156 334.441406 47.976562 332.363281 46.007812 C 331.839844 45.519531 331.292969 45.050781 330.730469 44.605469 L 330.304688 44.273438 C 330.265625 44.246094 330.230469 44.21875 330.195312 44.195312 L 330.085938 44.113281 L 329.867188 43.953125 L 329.648438 43.796875 L 329.425781 43.644531 C 329.273438 43.542969 329.128906 43.4375 328.972656 43.34375 C 328.824219 43.246094 328.671875 43.144531 328.519531 43.050781 L 328.054688 42.769531 C 328.015625 42.746094 327.976562 42.722656 327.9375 42.699219 L 327.820312 42.632812 L 327.582031 42.5 L 327.347656 42.367188 L 327.105469 42.238281 L 326.867188 42.113281 L 326.746094 42.046875 C 326.707031 42.027344 326.664062 42.007812 326.625 41.988281 L 326.136719 41.746094 C 325.808594 41.59375 325.480469 41.441406 325.144531 41.300781 C 322.464844 40.183594 319.589844 39.523438 316.667969 39.34375 C 315.9375 39.300781 315.203125 39.285156 314.46875 39.292969 L 313.917969 39.304688 C 313.875 39.304688 313.828125 39.308594 313.78125 39.308594 L 313.644531 39.316406 L 313.367188 39.328125 L 313.230469 39.332031 L 313.160156 39.335938 L 313.09375 39.34375 L 312.816406 39.359375 C 312.632812 39.375 312.449219 39.386719 312.265625 39.40625 C 311.53125 39.46875 310.796875 39.570312 310.0625 39.695312 L 309.789062 39.746094 L 309.652344 39.769531 L 309.515625 39.800781 L 308.96875 39.914062 C 308.609375 40 308.246094 40.082031 307.886719 40.183594 L 307.617188 40.257812 C 307.570312 40.273438 307.527344 40.285156 307.480469 40.300781 L 307.347656 40.339844 L 307.078125 40.425781 L 306.945312 40.464844 L 306.8125 40.511719 L 306.542969 40.601562 C 306.453125 40.632812 306.367188 40.664062 306.277344 40.699219 C 306.101562 40.761719 305.925781 40.832031 305.746094 40.898438 C 305.660156 40.933594 305.574219 40.972656 305.484375 41.007812 L 305.355469 41.0625 L 305.222656 41.121094 L 304.964844 41.234375 L 304.703125 41.355469 C 304.660156 41.378906 304.617188 41.398438 304.574219 41.417969 L 304.449219 41.480469 C 304.363281 41.523438 304.277344 41.566406 304.191406 41.609375 C 304.023438 41.699219 303.855469 41.789062 303.6875 41.882812 C 303.351562 42.070312 303.023438 42.269531 302.699219 42.480469 L 302.460938 42.640625 C 302.378906 42.695312 302.300781 42.753906 302.222656 42.808594 L 302.101562 42.890625 C 302.0625 42.917969 302.023438 42.949219 301.984375 42.976562 L 301.75 43.152344 C 301.136719 43.628906 300.546875 44.148438 300.003906 44.730469 C 299.867188 44.871094 299.734375 45.023438 299.605469 45.171875 C 299.539062 45.246094 299.476562 45.324219 299.410156 45.398438 L 299.222656 45.632812 C 299.164062 45.710938 299.101562 45.789062 299.039062 45.871094 L 298.863281 46.113281 C 298.804688 46.191406 298.746094 46.277344 298.691406 46.359375 L 298.605469 46.484375 L 298.566406 46.546875 L 298.523438 46.609375 L 298.363281 46.867188 C 298.335938 46.910156 298.3125 46.953125 298.285156 46.996094 L 298.210938 47.125 L 298.132812 47.257812 C 298.109375 47.300781 298.085938 47.347656 298.0625 47.390625 L 297.917969 47.65625 L 297.785156 47.929688 C 297.765625 47.976562 297.742188 48.019531 297.71875 48.066406 L 297.660156 48.207031 L 297.597656 48.34375 C 297.578125 48.390625 297.554688 48.4375 297.539062 48.484375 L 297.425781 48.765625 L 297.371094 48.90625 L 297.320312 49.050781 C 297.289062 49.148438 297.253906 49.242188 297.222656 49.339844 L 297.132812 49.632812 C 297.117188 49.679688 297.105469 49.730469 297.09375 49.78125 L 297.054688 49.929688 L 297.015625 50.074219 C 297.003906 50.125 296.992188 50.175781 296.980469 50.222656 L 296.917969 50.519531 C 296.898438 50.621094 296.882812 50.71875 296.867188 50.820312 L 296.839844 50.96875 L 296.820312 51.117188 C 296.808594 51.21875 296.792969 51.316406 296.78125 51.417969 L 296.753906 51.714844 L 296.75 51.789062 L 296.746094 51.828125 L 296.746094 51.867188 L 296.730469 52.164062 C 296.726562 52.214844 296.722656 52.261719 296.726562 52.3125 L 296.722656 52.609375 L 296.722656 52.757812 L 296.726562 52.90625 L 296.734375 53.054688 C 296.734375 53.078125 296.734375 53.101562 296.734375 53.128906 L 296.742188 53.203125 L 296.761719 53.496094 C 296.765625 53.542969 296.769531 53.59375 296.777344 53.640625 L 296.792969 53.789062 L 296.808594 53.933594 C 296.8125 53.980469 296.824219 54.03125 296.828125 54.078125 L 296.875 54.367188 C 296.890625 54.464844 296.910156 54.558594 296.925781 54.652344 L 296.957031 54.796875 L 296.988281 54.9375 C 297.007812 55.03125 297.03125 55.125 297.054688 55.21875 L 297.128906 55.5 C 297.140625 55.546875 297.152344 55.59375 297.167969 55.636719 L 297.210938 55.777344 C 297.324219 56.144531 297.460938 56.5 297.609375 56.851562 L 297.726562 57.113281 C 297.746094 57.15625 297.765625 57.199219 297.789062 57.238281 L 297.851562 57.367188 C 297.933594 57.539062 298.027344 57.703125 298.117188 57.867188 C 298.164062 57.949219 298.214844 58.03125 298.261719 58.109375 L 298.335938 58.230469 C 298.359375 58.269531 298.386719 58.308594 298.414062 58.347656 L 298.566406 58.582031 L 298.730469 58.8125 C 298.757812 58.847656 298.785156 58.886719 298.8125 58.921875 L 298.898438 59.035156 L 299.027344 59.199219 C 299.042969 59.214844 299.058594 59.234375 299.074219 59.25 C 299.195312 59.394531 299.3125 59.535156 299.441406 59.667969 L 299.582031 59.820312 L 299.632812 59.867188 L 299.828125 60.058594 C 299.84375 60.074219 299.859375 60.09375 299.878906 60.109375 L 299.929688 60.152344 L 300.03125 60.246094 C 300.101562 60.304688 300.167969 60.367188 300.238281 60.421875 L 300.453125 60.59375 C 300.523438 60.648438 300.597656 60.703125 300.671875 60.753906 L 300.78125 60.835938 C 300.816406 60.859375 300.855469 60.882812 300.894531 60.910156 L 301.121094 61.054688 L 301.398438 60.765625 C 301.015625 60.191406 300.691406 59.605469 300.429688 59.003906 C 300.359375 58.855469 300.304688 58.699219 300.242188 58.550781 C 300.234375 58.53125 300.226562 58.511719 300.21875 58.492188 L 300.199219 58.4375 L 300.160156 58.324219 L 300.117188 58.207031 C 300.101562 58.171875 300.089844 58.132812 300.078125 58.09375 L 300.003906 57.863281 L 299.9375 57.632812 C 299.925781 57.597656 299.914062 57.558594 299.902344 57.519531 L 299.875 57.402344 C 299.855469 57.324219 299.835938 57.25 299.816406 57.171875 C 299.78125 57.015625 299.746094 56.863281 299.71875 56.707031 L 299.695312 56.59375 C 299.6875 56.554688 299.679688 56.515625 299.675781 56.476562 L 299.640625 56.246094 C 299.597656 55.933594 299.558594 55.628906 299.546875 55.320312 L 299.539062 55.203125 C 299.535156 55.167969 299.535156 55.128906 299.535156 55.089844 L 299.527344 54.859375 L 299.527344 54.515625 L 299.539062 54.175781 L 299.554688 53.949219 C 299.558594 53.914062 299.558594 53.875 299.566406 53.839844 L 299.578125 53.726562 L 299.589844 53.617188 C 299.59375 53.578125 299.59375 53.542969 299.601562 53.503906 L 299.628906 53.28125 L 299.636719 53.226562 C 299.640625 53.210938 299.644531 53.191406 299.648438 53.171875 L 299.664062 53.0625 L 299.683594 52.953125 L 299.691406 52.898438 L 299.703125 52.84375 L 299.75 52.628906 C 299.753906 52.59375 299.765625 52.558594 299.773438 52.523438 L 299.796875 52.417969 L 299.824219 52.308594 L 299.828125 52.285156 L 299.851562 52.203125 L 299.910156 51.996094 C 299.929688 51.925781 299.953125 51.859375 299.976562 51.789062 L 300.007812 51.6875 L 300.042969 51.585938 L 300.117188 51.382812 L 300.195312 51.1875 C 300.207031 51.152344 300.21875 51.121094 300.234375 51.085938 L 300.277344 50.992188 L 300.320312 50.894531 C 300.335938 50.863281 300.347656 50.828125 300.363281 50.796875 L 300.457031 50.609375 C 300.484375 50.546875 300.523438 50.484375 300.554688 50.421875 L 300.605469 50.328125 L 300.628906 50.28125 L 300.65625 50.234375 L 300.761719 50.050781 C 300.78125 50.019531 300.800781 49.988281 300.820312 49.957031 L 300.929688 49.777344 C 300.949219 49.746094 300.96875 49.71875 300.988281 49.6875 L 301.230469 49.335938 C 301.253906 49.308594 301.273438 49.277344 301.292969 49.25 L 301.359375 49.164062 L 301.421875 49.082031 C 301.445312 49.050781 301.464844 49.023438 301.488281 48.996094 L 301.625 48.828125 L 301.65625 48.789062 L 301.691406 48.746094 L 301.761719 48.664062 C 301.808594 48.613281 301.855469 48.554688 301.902344 48.503906 L 302.046875 48.34375 C 302.097656 48.292969 302.148438 48.242188 302.199219 48.1875 L 302.273438 48.109375 L 302.351562 48.035156 C 302.402344 47.984375 302.453125 47.933594 302.503906 47.882812 C 302.613281 47.78125 302.714844 47.683594 302.824219 47.585938 C 303.257812 47.195312 303.726562 46.835938 304.210938 46.492188 L 304.398438 46.363281 C 304.425781 46.34375 304.457031 46.320312 304.488281 46.300781 L 304.582031 46.238281 C 304.644531 46.199219 304.707031 46.15625 304.769531 46.117188 L 304.960938 45.996094 C 305.214844 45.835938 305.476562 45.679688 305.742188 45.53125 C 305.871094 45.453125 306.007812 45.382812 306.140625 45.308594 C 306.207031 45.273438 306.273438 45.238281 306.34375 45.203125 L 306.445312 45.148438 C 306.476562 45.128906 306.511719 45.113281 306.546875 45.097656 L 306.75 44.992188 L 306.957031 44.890625 L 307.0625 44.839844 L 307.164062 44.789062 L 307.375 44.691406 C 307.515625 44.628906 307.65625 44.5625 307.796875 44.5 C 307.867188 44.46875 307.9375 44.4375 308.011719 44.40625 L 308.222656 44.316406 L 308.277344 44.292969 L 308.332031 44.273438 L 308.441406 44.226562 L 308.769531 44.097656 C 308.804688 44.082031 308.84375 44.066406 308.878906 44.054688 L 309.101562 43.972656 C 309.394531 43.855469 309.691406 43.757812 309.988281 43.652344 L 310.441406 43.507812 L 310.554688 43.472656 L 310.667969 43.441406 L 310.898438 43.375 C 311.507812 43.203125 312.125 43.046875 312.75 42.929688 C 312.90625 42.898438 313.0625 42.871094 313.222656 42.847656 L 313.457031 42.804688 L 313.574219 42.789062 L 313.695312 42.769531 L 313.933594 42.738281 L 314.050781 42.71875 C 314.089844 42.714844 314.128906 42.710938 314.171875 42.703125 L 314.648438 42.652344 C 315.285156 42.589844 315.929688 42.558594 316.570312 42.554688 C 319.144531 42.542969 321.734375 42.957031 324.191406 43.796875 C 324.5 43.894531 324.804688 44.011719 325.109375 44.125 L 325.5625 44.304688 C 325.601562 44.316406 325.640625 44.332031 325.675781 44.347656 L 325.789062 44.398438 L 326.011719 44.492188 L 326.238281 44.589844 L 326.460938 44.691406 L 326.679688 44.792969 L 326.792969 44.847656 C 326.828125 44.863281 326.863281 44.882812 326.902344 44.898438 L 327.339844 45.117188 C 327.484375 45.195312 327.625 45.273438 327.769531 45.347656 C 327.914062 45.425781 328.054688 45.507812 328.199219 45.589844 L 328.410156 45.710938 L 328.464844 45.742188 L 328.515625 45.773438 L 328.621094 45.835938 L 328.828125 45.964844 L 328.933594 46.027344 C 328.96875 46.050781 329.003906 46.070312 329.039062 46.09375 L 329.449219 46.363281 C 329.996094 46.726562 330.527344 47.113281 331.042969 47.523438 C 333.113281 49.160156 334.921875 51.164062 336.371094 53.417969 C 337.601562 55.328125 338.574219 57.425781 339.234375 59.632812 C 339.320312 59.992188 339.417969 60.347656 339.527344 60.703125 C 339.539062 60.746094 339.550781 60.789062 339.5625 60.835938 L 339.957031 60.765625 C 339.867188 60.074219 339.75 59.390625 339.605469 58.707031 L 339.5 58.257812 C 339.421875 57.417969 339.410156 56.574219 339.46875 55.738281 C 339.582031 54.097656 339.945312 52.480469 340.527344 50.949219 C 341.109375 49.421875 341.910156 47.980469 342.894531 46.691406 C 343.878906 45.398438 345.050781 44.257812 346.371094 43.335938 C 347.691406 42.414062 349.152344 41.695312 350.679688 41.195312 C 352.210938 40.695312 353.808594 40.40625 355.410156 40.328125 C 357.011719 40.25 358.625 40.382812 360.183594 40.722656 C 360.960938 40.894531 361.726562 41.113281 362.472656 41.386719 C 363.21875 41.660156 363.941406 41.984375 364.640625 42.355469 C 366.042969 43.101562 367.339844 44.035156 368.503906 45.113281 C 369.664062 46.191406 370.695312 47.414062 371.566406 48.738281 C 372.4375 50.0625 373.152344 51.488281 373.691406 52.96875 C 373.957031 53.710938 374.183594 54.46875 374.359375 55.234375 C 374.371094 55.28125 374.382812 55.328125 374.390625 55.375 L 374.421875 55.519531 L 374.480469 55.808594 C 374.503906 55.902344 374.519531 56 374.535156 56.097656 L 374.589844 56.386719 C 374.605469 56.484375 374.617188 56.582031 374.632812 56.679688 L 374.675781 56.96875 L 374.695312 57.117188 C 374.703125 57.164062 374.710938 57.214844 374.714844 57.261719 L 374.746094 57.554688 C 374.792969 57.945312 374.816406 58.339844 374.84375 58.730469 L 374.867188 59.320312 L 374.867188 59.394531 L 374.871094 59.433594 L 374.871094 60.207031 L 374.859375 60.503906 L 374.851562 60.800781 L 374.847656 60.875 L 374.847656 60.910156 L 374.84375 60.945312 L 374.835938 61.09375 L 374.816406 61.390625 L 374.804688 61.539062 C 374.800781 61.585938 374.800781 61.636719 374.796875 61.683594 L 374.738281 62.273438 C 374.648438 63.058594 374.523438 63.839844 374.359375 64.617188 L 374.230469 65.195312 C 374.21875 65.246094 374.207031 65.292969 374.195312 65.34375 L 374.160156 65.484375 L 374.085938 65.773438 C 374.058594 65.871094 374.035156 65.964844 374.007812 66.0625 L 373.925781 66.347656 L 373.84375 66.636719 C 373.832031 66.683594 373.816406 66.730469 373.804688 66.777344 L 373.757812 66.917969 L 373.578125 67.488281 L 373.378906 68.050781 L 373.332031 68.191406 L 373.277344 68.332031 L 373.171875 68.609375 L 373.066406 68.890625 L 372.839844 69.445312 L 372.722656 69.71875 L 372.480469 70.265625 C 372.3125 70.628906 372.144531 70.992188 371.964844 71.347656 L 371.828125 71.613281 C 371.808594 71.660156 371.785156 71.703125 371.761719 71.746094 L 371.550781 72.144531 C 371.503906 72.230469 371.457031 72.320312 371.40625 72.40625 L 371.113281 72.929688 L 371.078125 72.996094 L 371.039062 73.0625 L 370.960938 73.191406 L 370.808594 73.449219 L 370.730469 73.578125 C 370.707031 73.621094 370.679688 73.664062 370.65625 73.703125 L 370.496094 73.960938 C 370.390625 74.128906 370.285156 74.300781 370.171875 74.464844 L 369.84375 74.96875 L 369.503906 75.460938 C 369.042969 76.117188 368.5625 76.757812 368.058594 77.378906 C 367.550781 78 367.023438 78.601562 366.476562 79.195312 L 366.0625 79.632812 L 366.007812 79.6875 L 365.957031 79.742188 L 365.851562 79.851562 L 365.640625 80.066406 L 365.53125 80.171875 C 365.496094 80.210938 365.460938 80.246094 365.425781 80.28125 L 365.210938 80.492188 C 365.066406 80.632812 364.921875 80.777344 364.777344 80.914062 C 364.195312 81.476562 363.59375 82.015625 362.980469 82.546875 C 362.675781 82.8125 362.363281 83.070312 362.050781 83.328125 L 361.578125 83.714844 C 361.5 83.777344 361.421875 83.839844 361.339844 83.902344 L 361.101562 84.09375 L 360.863281 84.28125 L 360.621094 84.46875 L 360.378906 84.652344 L 360.257812 84.746094 L 360.136719 84.835938 L 359.644531 85.203125 L 359.152344 85.5625 C 358.492188 86.042969 357.824219 86.511719 357.144531 86.96875 C 356.464844 87.425781 355.78125 87.875 355.089844 88.320312 C 352.320312 90.089844 349.453125 91.75 346.566406 93.429688 C 343.679688 95.113281 340.769531 96.816406 337.910156 98.660156 C 337.734375 98.777344 337.554688 98.890625 337.375 99.007812 L 336.84375 99.359375 C 336.488281 99.59375 336.132812 99.832031 335.78125 100.070312 C 335.074219 100.550781 334.371094 101.039062 333.679688 101.542969 C 333.59375 101.605469 333.503906 101.664062 333.417969 101.730469 L 333.160156 101.917969 C 332.988281 102.046875 332.8125 102.171875 332.640625 102.300781 L 332.128906 102.6875 L 331.617188 103.082031 C 330.9375 103.609375 330.269531 104.148438 329.605469 104.703125 C 328.949219 105.257812 328.300781 105.828125 327.664062 106.414062 L 327.1875 106.855469 L 326.722656 107.304688 L 326.605469 107.417969 C 326.566406 107.453125 326.527344 107.492188 326.488281 107.53125 L 326.257812 107.757812 L 326.027344 107.988281 C 325.953125 108.0625 325.875 108.140625 325.800781 108.21875 L 325.574219 108.453125 C 325.496094 108.53125 325.421875 108.609375 325.347656 108.6875 L 324.902344 109.164062 C 324.753906 109.324219 324.609375 109.484375 324.464844 109.644531 C 324.316406 109.804688 324.175781 109.972656 324.035156 110.132812 L 323.820312 110.378906 L 323.765625 110.441406 L 323.714844 110.503906 L 323.609375 110.628906 C 323.472656 110.796875 323.332031 110.960938 323.195312 111.128906 L 322.789062 111.636719 C 322.71875 111.722656 322.652344 111.808594 322.585938 111.894531 L 322.390625 112.152344 C 322.324219 112.238281 322.257812 112.324219 322.191406 112.410156 L 322 112.671875 L 321.804688 112.933594 L 321.242188 113.730469 L 320.878906 114.269531 L 320.789062 114.40625 C 320.757812 114.449219 320.730469 114.496094 320.699219 114.542969 L 320.347656 115.089844 C 320.292969 115.183594 320.234375 115.273438 320.179688 115.367188 L 320.011719 115.644531 C 319.953125 115.738281 319.898438 115.828125 319.84375 115.921875 L 319.515625 116.484375 C 319.09375 117.242188 318.695312 118.011719 318.324219 118.792969 L 318.054688 119.386719 C 318.007812 119.484375 317.96875 119.582031 317.925781 119.683594 L 317.796875 119.980469 C 317.757812 120.082031 317.714844 120.179688 317.671875 120.28125 L 317.554688 120.582031 L 317.433594 120.882812 C 317.414062 120.933594 317.394531 120.984375 317.375 121.035156 L 317.320312 121.1875 C 317.246094 121.390625 317.171875 121.59375 317.101562 121.796875 L 316.898438 122.414062 C 316.882812 122.464844 316.863281 122.515625 316.847656 122.566406 L 316.800781 122.722656 L 316.707031 123.03125 C 316.675781 123.136719 316.644531 123.238281 316.617188 123.34375 L 316.53125 123.652344 L 316.449219 123.964844 C 316.433594 124.019531 316.417969 124.070312 316.40625 124.121094 L 316.371094 124.28125 C 316.320312 124.488281 316.269531 124.699219 316.222656 124.910156 L 316.089844 125.539062 C 316.082031 125.59375 316.070312 125.644531 316.058594 125.699219 L 316.03125 125.859375 L 315.976562 126.175781 C 315.960938 126.28125 315.941406 126.386719 315.925781 126.492188 L 315.878906 126.8125 L 315.835938 127.128906 C 315.828125 127.183594 315.820312 127.234375 315.8125 127.289062 L 315.796875 127.449219 C 315.773438 127.664062 315.753906 127.875 315.730469 128.089844 L 315.6875 128.726562 C 315.636719 129.582031 315.636719 130.433594 315.679688 131.28125 L 316.082031 131.292969 C 316.1875 130.464844 316.324219 129.648438 316.5 128.839844 L 316.636719 128.234375 L 316.792969 127.636719 L 316.832031 127.488281 C 316.84375 127.4375 316.859375 127.386719 316.875 127.339844 L 316.960938 127.042969 L 317.042969 126.746094 C 317.074219 126.648438 317.105469 126.550781 317.136719 126.453125 L 317.230469 126.160156 L 317.277344 126.011719 C 317.292969 125.964844 317.3125 125.914062 317.328125 125.867188 L 317.53125 125.289062 L 317.75 124.714844 L 317.804688 124.570312 C 317.820312 124.523438 317.84375 124.476562 317.863281 124.425781 L 317.976562 124.144531 L 318.09375 123.859375 C 318.132812 123.765625 318.175781 123.671875 318.21875 123.582031 L 318.339844 123.300781 L 318.402344 123.160156 C 318.421875 123.113281 318.445312 123.066406 318.46875 123.023438 L 318.730469 122.46875 C 318.820312 122.285156 318.914062 122.105469 319.003906 121.921875 L 319.070312 121.785156 C 319.09375 121.742188 319.121094 121.695312 319.144531 121.652344 L 319.289062 121.382812 L 319.429688 121.113281 C 319.480469 121.023438 319.53125 120.933594 319.578125 120.847656 L 319.730469 120.582031 C 319.78125 120.492188 319.828125 120.402344 319.882812 120.316406 L 320.191406 119.792969 C 320.617188 119.097656 321.0625 118.417969 321.527344 117.753906 L 321.882812 117.261719 C 321.941406 117.175781 322.003906 117.097656 322.0625 117.015625 L 322.246094 116.773438 C 322.308594 116.691406 322.367188 116.609375 322.429688 116.527344 L 322.804688 116.050781 C 322.835938 116.011719 322.867188 115.96875 322.898438 115.929688 L 322.992188 115.8125 L 323.378906 115.339844 L 323.769531 114.875 L 323.867188 114.761719 L 323.96875 114.644531 L 324.367188 114.191406 C 324.4375 114.113281 324.503906 114.039062 324.574219 113.964844 L 324.777344 113.742188 C 324.847656 113.664062 324.914062 113.589844 324.984375 113.515625 L 325.402344 113.074219 C 325.539062 112.929688 325.683594 112.785156 325.824219 112.640625 L 325.929688 112.53125 L 325.984375 112.476562 L 326.039062 112.425781 L 326.253906 112.210938 C 326.398438 112.070312 326.542969 111.925781 326.6875 111.789062 C 326.835938 111.648438 326.980469 111.507812 327.128906 111.371094 L 327.574219 110.957031 C 327.648438 110.890625 327.722656 110.824219 327.800781 110.753906 L 328.027344 110.554688 C 328.101562 110.488281 328.175781 110.417969 328.253906 110.351562 L 328.714844 109.953125 C 328.753906 109.921875 328.789062 109.886719 328.828125 109.855469 L 329.414062 109.367188 L 329.886719 108.980469 C 330.519531 108.46875 331.160156 107.96875 331.8125 107.484375 C 334.425781 105.535156 337.195312 103.765625 340.03125 102.074219 C 342.867188 100.375 345.773438 98.742188 348.675781 97.046875 C 351.582031 95.347656 354.480469 93.574219 357.292969 91.628906 C 357.996094 91.140625 358.691406 90.640625 359.382812 90.132812 C 360.074219 89.625 360.757812 89.101562 361.433594 88.566406 L 361.9375 88.164062 L 362.4375 87.753906 L 362.6875 87.550781 L 362.933594 87.339844 L 363.183594 87.132812 L 363.675781 86.710938 C 363.757812 86.640625 363.839844 86.570312 363.917969 86.5 L 364.40625 86.070312 C 364.726562 85.777344 365.046875 85.488281 365.363281 85.191406 C 365.992188 84.597656 366.617188 83.992188 367.21875 83.363281 C 367.371094 83.210938 367.519531 83.050781 367.667969 82.890625 L 367.890625 82.65625 C 367.929688 82.617188 367.964844 82.574219 368 82.535156 L 368.113281 82.414062 L 368.332031 82.171875 L 368.441406 82.054688 L 368.550781 81.929688 L 368.980469 81.441406 C 369.550781 80.785156 370.105469 80.101562 370.636719 79.410156 C 371.167969 78.710938 371.675781 77.996094 372.160156 77.269531 L 372.519531 76.71875 L 372.863281 76.160156 C 372.980469 75.972656 373.089844 75.785156 373.203125 75.59375 L 373.367188 75.3125 C 373.398438 75.265625 373.421875 75.21875 373.449219 75.167969 L 373.53125 75.027344 L 373.691406 74.738281 L 373.769531 74.59375 L 373.808594 74.523438 L 373.847656 74.449219 L 374.15625 73.867188 C 374.207031 73.773438 374.253906 73.671875 374.304688 73.574219 L 374.449219 73.28125 L 374.523438 73.132812 C 374.546875 73.085938 374.570312 73.035156 374.59375 72.984375 L 374.734375 72.6875 C 374.921875 72.292969 375.097656 71.886719 375.269531 71.484375 L 375.582031 70.722656 L 375.640625 70.566406 L 375.875 69.953125 L 375.980469 69.640625 L 376.144531 69.171875 L 376.195312 69.015625 L 376.394531 68.386719 L 376.582031 67.75 L 376.625 67.59375 C 376.640625 67.539062 376.652344 67.484375 376.667969 67.433594 L 376.832031 66.792969 C 376.859375 66.683594 376.882812 66.578125 376.910156 66.46875 " fill-opacity="1" fill-rule="nonzero"/></g></g></g></g></g><g fill="#5c646b" fill-opacity="1"><g transform="translate(49.583047, 159.07514)"><g><path d="M 12.875 -13.625 L 3.75 -13.625 L 3.75 -8.890625 L 12.296875 -8.890625 L 12.296875 -7.078125 L 3.75 -7.078125 L 3.75 -1.8125 L 13.21875 -1.8125 L 13.21875 0 L 1.703125 0 L 1.703125 -15.4375 L 12.875 -15.4375 Z M 12.875 -13.625 "/></g></g></g><g fill="#5c646b" fill-opacity="1"><g transform="translate(67.172213, 159.07514)"><g><path d="M 6.40625 -4.09375 C 6.707031 -3.289062 6.957031 -2.492188 7.15625 -1.703125 C 7.414062 -2.578125 7.695312 -3.414062 8 -4.21875 L 12.15625 -15.4375 L 14.25 -15.4375 L 8.21875 0 L 6.109375 0 L 0.125 -15.4375 L 2.34375 -15.4375 Z M 6.40625 -4.09375 "/></g></g></g><g fill="#5c646b" fill-opacity="1"><g transform="translate(84.761378, 159.07514)"><g><path d="M 12.875 -13.625 L 3.75 -13.625 L 3.75 -8.890625 L 12.296875 -8.890625 L 12.296875 -7.078125 L 3.75 -7.078125 L 3.75 -1.8125 L 13.21875 -1.8125 L 13.21875 0 L 1.703125 0 L 1.703125 -15.4375 L 12.875 -15.4375 Z M 12.875 -13.625 "/></g></g></g><g fill="#5c646b" fill-opacity="1"><g transform="translate(102.350543, 159.07514)"><g><path d="M 11.90625 -3.328125 L 11.90625 -15.4375 L 13.859375 -15.4375 L 13.859375 0 L 11.765625 0 L 3.671875 -12.125 L 3.671875 0 L 1.703125 0 L 1.703125 -15.4375 L 3.796875 -15.4375 Z M 11.90625 -3.328125 "/></g></g></g><g fill="#5c646b" fill-opacity="1"><g transform="translate(121.125253, 159.07514)"><g><path d="M 12.71875 -13.625 L 7.609375 -13.625 L 7.609375 0 L 5.5625 0 L 5.5625 -13.625 L 0.46875 -13.625 L 0.46875 -15.4375 L 12.71875 -15.4375 Z M 12.71875 -13.625 "/></g></g></g><g fill="#5c646b" fill-opacity="1"><g transform="translate(137.507307, 159.07514)"><g><path d="M 6.984375 -15.703125 C 8.734375 -15.703125 10.117188 -15.289062 11.140625 -14.46875 C 12.160156 -13.644531 12.707031 -12.515625 12.78125 -11.078125 L 10.828125 -10.953125 C 10.710938 -11.941406 10.351562 -12.671875 9.75 -13.140625 C 9.144531 -13.617188 8.253906 -13.859375 7.078125 -13.859375 C 5.953125 -13.859375 5.078125 -13.65625 4.453125 -13.25 C 3.835938 -12.84375 3.53125 -12.285156 3.53125 -11.578125 C 3.53125 -11.117188 3.664062 -10.726562 3.9375 -10.40625 C 4.21875 -10.082031 4.609375 -9.847656 5.109375 -9.703125 C 5.222656 -9.671875 5.644531 -9.539062 6.375 -9.3125 C 7.113281 -9.09375 8.050781 -8.863281 9.1875 -8.625 C 10.539062 -8.320312 11.550781 -7.78125 12.21875 -7 C 12.894531 -6.226562 13.234375 -5.347656 13.234375 -4.359375 C 13.234375 -3.523438 13.003906 -2.753906 12.546875 -2.046875 C 12.097656 -1.335938 11.441406 -0.773438 10.578125 -0.359375 C 9.722656 0.0546875 8.707031 0.265625 7.53125 0.265625 C 6.175781 0.265625 5.007812 0.0507812 4.03125 -0.375 C 3.050781 -0.8125 2.300781 -1.421875 1.78125 -2.203125 C 1.269531 -2.992188 1 -3.910156 0.96875 -4.953125 L 2.90625 -5.125 C 3 -3.90625 3.484375 -3.007812 4.359375 -2.4375 C 5.234375 -1.863281 6.265625 -1.578125 7.453125 -1.578125 C 8.648438 -1.578125 9.585938 -1.820312 10.265625 -2.3125 C 10.953125 -2.800781 11.296875 -3.460938 11.296875 -4.296875 C 11.296875 -5.429688 10.382812 -6.21875 8.5625 -6.65625 L 7.359375 -6.96875 C 6.609375 -7.132812 5.742188 -7.363281 4.765625 -7.65625 C 3.773438 -7.945312 3 -8.429688 2.4375 -9.109375 C 1.875 -9.796875 1.59375 -10.578125 1.59375 -11.453125 C 1.59375 -12.253906 1.804688 -12.976562 2.234375 -13.625 C 2.671875 -14.269531 3.296875 -14.773438 4.109375 -15.140625 C 4.921875 -15.515625 5.878906 -15.703125 6.984375 -15.703125 Z M 6.984375 -15.703125 "/></g></g></g><g fill="#5c646b" fill-opacity="1"><g transform="translate(155.096476, 159.07514)"><g/></g></g><g fill="#5c646b" fill-opacity="1"><g transform="translate(164.300611, 159.07514)"><g><path d="M 11.875 -14.421875 C 12.394531 -14.003906 12.785156 -13.5 13.046875 -12.90625 C 13.304688 -12.3125 13.4375 -11.703125 13.4375 -11.078125 C 13.4375 -9.367188 12.820312 -8.078125 11.59375 -7.203125 C 10.78125 -6.597656 9.523438 -6.296875 7.828125 -6.296875 L 3.703125 -6.296875 L 3.703125 0 L 1.65625 0 L 1.65625 -15.4375 L 7.8125 -15.4375 C 8.800781 -15.4375 9.601562 -15.363281 10.21875 -15.21875 C 10.832031 -15.070312 11.382812 -14.804688 11.875 -14.421875 Z M 11.328125 -11.046875 C 11.328125 -11.359375 11.25 -11.695312 11.09375 -12.0625 C 10.945312 -12.425781 10.742188 -12.722656 10.484375 -12.953125 C 10.191406 -13.210938 9.859375 -13.390625 9.484375 -13.484375 C 9.109375 -13.578125 8.613281 -13.625 8 -13.625 L 3.703125 -13.625 L 3.703125 -8.109375 L 7.8125 -8.109375 C 9 -8.109375 9.878906 -8.34375 10.453125 -8.8125 C 11.035156 -9.289062 11.328125 -10.035156 11.328125 -11.046875 Z M 11.328125 -11.046875 "/></g></g></g><g fill="#5c646b" fill-opacity="1"><g transform="translate(181.88978, 159.07514)"><g><path d="M 12.546875 -14.515625 C 13.078125 -14.097656 13.460938 -13.597656 13.703125 -13.015625 C 13.953125 -12.429688 14.078125 -11.832031 14.078125 -11.21875 C 14.078125 -10.09375 13.71875 -9.164062 13 -8.4375 C 12.28125 -7.71875 11.1875 -7.25 9.71875 -7.03125 C 10.28125 -6.769531 10.785156 -6.421875 11.234375 -5.984375 C 11.679688 -5.546875 12.15625 -4.9375 12.65625 -4.15625 L 15.328125 0 L 12.765625 0 L 10.78125 -3.109375 C 10.09375 -4.179688 9.539062 -4.960938 9.125 -5.453125 C 8.71875 -5.953125 8.296875 -6.304688 7.859375 -6.515625 C 7.429688 -6.722656 6.890625 -6.828125 6.234375 -6.828125 L 3.78125 -6.828125 L 3.78125 0 L 1.71875 0 L 1.71875 -15.4375 L 8.8125 -15.4375 C 9.71875 -15.4375 10.453125 -15.367188 11.015625 -15.234375 C 11.585938 -15.097656 12.097656 -14.859375 12.546875 -14.515625 Z M 11.0625 -9.3125 C 11.375 -9.5625 11.601562 -9.851562 11.75 -10.1875 C 11.894531 -10.519531 11.96875 -10.863281 11.96875 -11.21875 C 11.96875 -12.125 11.644531 -12.769531 11 -13.15625 C 10.351562 -13.539062 9.597656 -13.734375 8.734375 -13.734375 L 3.78125 -13.734375 L 3.78125 -8.640625 L 8.390625 -8.640625 C 9.109375 -8.640625 9.65625 -8.691406 10.03125 -8.796875 C 10.414062 -8.910156 10.757812 -9.082031 11.0625 -9.3125 Z M 11.0625 -9.3125 "/></g></g></g><g fill="#5c646b" fill-opacity="1"><g transform="translate(200.664493, 159.07514)"><g><path d="M 4.03125 0 L 1.984375 0 L 1.984375 -15.4375 L 4.03125 -15.4375 Z M 4.03125 0 "/></g></g></g><g fill="#5c646b" fill-opacity="1"><g transform="translate(209.868628, 159.07514)"><g><path d="M 11.90625 -3.328125 L 11.90625 -15.4375 L 13.859375 -15.4375 L 13.859375 0 L 11.765625 0 L 3.671875 -12.125 L 3.671875 0 L 1.703125 0 L 1.703125 -15.4375 L 3.796875 -15.4375 Z M 11.90625 -3.328125 "/></g></g></g><g fill="#5c646b" fill-opacity="1"><g transform="translate(228.64334, 159.07514)"><g><path d="M 12.71875 -13.625 L 7.609375 -13.625 L 7.609375 0 L 5.5625 0 L 5.5625 -13.625 L 0.46875 -13.625 L 0.46875 -15.4375 L 12.71875 -15.4375 Z M 12.71875 -13.625 "/></g></g></g><g fill="#5c646b" fill-opacity="1"><g transform="translate(245.025395, 159.07514)"><g><path d="M 14.421875 0 L 12.09375 0 L 10.28125 -4.703125 L 3.84375 -4.703125 L 2.15625 0 L -0.015625 0 L 5.90625 -15.4375 L 8.109375 -15.4375 Z M 6.125 -10.875 L 4.4375 -6.34375 L 9.65625 -6.34375 L 7.765625 -11.421875 C 7.535156 -12.023438 7.269531 -12.828125 6.96875 -13.828125 C 6.96875 -13.753906 6.878906 -13.390625 6.703125 -12.734375 C 6.535156 -12.078125 6.34375 -11.457031 6.125 -10.875 Z M 6.125 -10.875 "/></g></g></g><g fill="#5c646b" fill-opacity="1"><g transform="translate(262.614564, 159.07514)"><g><path d="M 11 -14.515625 C 11.570312 -14.078125 11.96875 -13.585938 12.1875 -13.046875 C 12.414062 -12.515625 12.53125 -12.039062 12.53125 -11.625 C 12.53125 -10.070312 11.800781 -8.9375 10.34375 -8.21875 C 11.34375 -7.914062 12.070312 -7.429688 12.53125 -6.765625 C 13 -6.109375 13.234375 -5.320312 13.234375 -4.40625 C 13.234375 -3.695312 13.050781 -2.976562 12.6875 -2.25 C 12.332031 -1.53125 11.710938 -0.960938 10.828125 -0.546875 C 10.066406 -0.179688 9.007812 0 7.65625 0 L 1.59375 0 L 1.59375 -15.4375 L 7.53125 -15.4375 C 8.382812 -15.4375 9.070312 -15.359375 9.59375 -15.203125 C 10.113281 -15.054688 10.582031 -14.828125 11 -14.515625 Z M 10.5 -11.25 C 10.5 -12.1875 10.203125 -12.816406 9.609375 -13.140625 C 9.015625 -13.460938 8.117188 -13.625 6.921875 -13.625 L 3.640625 -13.625 L 3.640625 -8.953125 L 7.109375 -8.953125 C 8.273438 -8.953125 9.128906 -9.132812 9.671875 -9.5 C 10.222656 -9.863281 10.5 -10.445312 10.5 -11.25 Z M 9.765625 -2.171875 C 10.253906 -2.421875 10.601562 -2.753906 10.8125 -3.171875 C 11.019531 -3.585938 11.125 -4.019531 11.125 -4.46875 C 11.125 -5.070312 10.972656 -5.582031 10.671875 -6 C 10.367188 -6.414062 9.9375 -6.71875 9.375 -6.90625 C 8.914062 -7.0625 8.25 -7.140625 7.375 -7.140625 L 3.640625 -7.140625 L 3.640625 -1.8125 L 7.765625 -1.8125 C 8.234375 -1.8125 8.617188 -1.835938 8.921875 -1.890625 C 9.222656 -1.953125 9.503906 -2.046875 9.765625 -2.171875 Z M 9.765625 -2.171875 "/></g></g></g><g fill="#5c646b" fill-opacity="1"><g transform="translate(280.203719, 159.07514)"><g><path d="M 3.671875 -1.8125 L 11.28125 -1.8125 L 11.28125 0 L 1.625 0 L 1.625 -15.4375 L 3.671875 -15.4375 Z M 3.671875 -1.8125 "/></g></g></g><g fill="#5c646b" fill-opacity="1"><g transform="translate(295.400216, 159.07514)"><g><path d="M 12.875 -13.625 L 3.75 -13.625 L 3.75 -8.890625 L 12.296875 -8.890625 L 12.296875 -7.078125 L 3.75 -7.078125 L 3.75 -1.8125 L 13.21875 -1.8125 L 13.21875 0 L 1.703125 0 L 1.703125 -15.4375 L 12.875 -15.4375 Z M 12.875 -13.625 "/></g></g></g><g fill="#5c646b" fill-opacity="1"><g transform="translate(312.989371, 159.07514)"><g><path d="M 6.984375 -15.703125 C 8.734375 -15.703125 10.117188 -15.289062 11.140625 -14.46875 C 12.160156 -13.644531 12.707031 -12.515625 12.78125 -11.078125 L 10.828125 -10.953125 C 10.710938 -11.941406 10.351562 -12.671875 9.75 -13.140625 C 9.144531 -13.617188 8.253906 -13.859375 7.078125 -13.859375 C 5.953125 -13.859375 5.078125 -13.65625 4.453125 -13.25 C 3.835938 -12.84375 3.53125 -12.285156 3.53125 -11.578125 C 3.53125 -11.117188 3.664062 -10.726562 3.9375 -10.40625 C 4.21875 -10.082031 4.609375 -9.847656 5.109375 -9.703125 C 5.222656 -9.671875 5.644531 -9.539062 6.375 -9.3125 C 7.113281 -9.09375 8.050781 -8.863281 9.1875 -8.625 C 10.539062 -8.320312 11.550781 -7.78125 12.21875 -7 C 12.894531 -6.226562 13.234375 -5.347656 13.234375 -4.359375 C 13.234375 -3.523438 13.003906 -2.753906 12.546875 -2.046875 C 12.097656 -1.335938 11.441406 -0.773438 10.578125 -0.359375 C 9.722656 0.0546875 8.707031 0.265625 7.53125 0.265625 C 6.175781 0.265625 5.007812 0.0507812 4.03125 -0.375 C 3.050781 -0.8125 2.300781 -1.421875 1.78125 -2.203125 C 1.269531 -2.992188 1 -3.910156 0.96875 -4.953125 L 2.90625 -5.125 C 3 -3.90625 3.484375 -3.007812 4.359375 -2.4375 C 5.234375 -1.863281 6.265625 -1.578125 7.453125 -1.578125 C 8.648438 -1.578125 9.585938 -1.820312 10.265625 -2.3125 C 10.953125 -2.800781 11.296875 -3.460938 11.296875 -4.296875 C 11.296875 -5.429688 10.382812 -6.21875 8.5625 -6.65625 L 7.359375 -6.96875 C 6.609375 -7.132812 5.742188 -7.363281 4.765625 -7.65625 C 3.773438 -7.945312 3 -8.429688 2.4375 -9.109375 C 1.875 -9.796875 1.59375 -10.578125 1.59375 -11.453125 C 1.59375 -12.253906 1.804688 -12.976562 2.234375 -13.625 C 2.671875 -14.269531 3.296875 -14.773438 4.109375 -15.140625 C 4.921875 -15.515625 5.878906 -15.703125 6.984375 -15.703125 Z M 6.984375 -15.703125 "/></g></g></g><g clip-path="url(#21c9069e55)"><g clip-path="url(#1f6316ecaf)"><g clip-path="url(#d78d41fd91)"><g clip-path="url(#4761ad6264)"><g clip-path="url(#0660137a0b)"><path fill="#f6c5bb" d="M 376.140625 67.066406 L 376.214844 66.746094 L 376.25 66.585938 C 376.261719 66.53125 376.273438 66.476562 376.28125 66.421875 L 376.410156 65.777344 C 376.566406 64.914062 376.683594 64.042969 376.757812 63.167969 L 376.804688 62.507812 C 376.808594 62.453125 376.808594 62.398438 376.8125 62.34375 L 376.820312 62.179688 L 376.832031 61.851562 L 376.839844 61.683594 L 376.839844 61.519531 L 376.84375 61.1875 L 376.84375 60.777344 L 376.839844 60.695312 L 376.835938 60.527344 L 376.824219 60.199219 L 376.820312 60.03125 L 376.820312 59.992188 L 376.816406 59.949219 L 376.8125 59.867188 L 376.769531 59.207031 C 376.726562 58.769531 376.6875 58.328125 376.625 57.890625 L 376.578125 57.566406 C 376.570312 57.511719 376.5625 57.457031 376.550781 57.402344 L 376.523438 57.238281 L 376.464844 56.914062 C 376.445312 56.804688 376.429688 56.695312 376.402344 56.585938 L 376.335938 56.261719 C 376.3125 56.152344 376.289062 56.046875 376.261719 55.9375 L 376.183594 55.617188 L 376.144531 55.453125 C 376.132812 55.402344 376.117188 55.347656 376.101562 55.292969 C 375.875 54.441406 375.597656 53.601562 375.269531 52.785156 C 374.613281 51.148438 373.769531 49.59375 372.757812 48.164062 C 371.742188 46.730469 370.5625 45.417969 369.242188 44.269531 C 367.917969 43.121094 366.449219 42.132812 364.875 41.363281 C 364.085938 40.980469 363.269531 40.648438 362.4375 40.378906 C 361.601562 40.109375 360.753906 39.898438 359.894531 39.742188 C 358.179688 39.4375 356.429688 39.359375 354.699219 39.503906 C 352.972656 39.652344 351.265625 40.027344 349.644531 40.628906 C 348.019531 41.230469 346.480469 42.058594 345.105469 43.105469 C 344.417969 43.625 343.769531 44.203125 343.175781 44.828125 C 342.582031 45.449219 342.035156 46.117188 341.542969 46.820312 C 340.558594 48.222656 339.785156 49.769531 339.25 51.382812 C 338.710938 53 338.40625 54.691406 338.367188 56.386719 C 338.363281 56.476562 338.363281 56.566406 338.363281 56.65625 L 338.261719 56.367188 L 338.21875 56.242188 L 338.078125 55.878906 L 337.984375 55.632812 L 337.882812 55.390625 L 337.78125 55.152344 L 337.730469 55.03125 C 337.714844 54.988281 337.695312 54.949219 337.679688 54.910156 L 337.464844 54.433594 C 337.390625 54.273438 337.3125 54.117188 337.238281 53.960938 C 337.164062 53.800781 337.082031 53.648438 337.003906 53.492188 C 335.71875 51.003906 334.003906 48.71875 331.941406 46.761719 C 331.421875 46.277344 330.882812 45.8125 330.324219 45.371094 L 329.898438 45.042969 C 329.863281 45.015625 329.828125 44.988281 329.792969 44.964844 L 329.683594 44.882812 L 329.46875 44.726562 L 329.25 44.570312 L 329.027344 44.417969 C 328.878906 44.316406 328.734375 44.214844 328.582031 44.117188 C 328.429688 44.023438 328.28125 43.921875 328.128906 43.828125 L 327.667969 43.550781 C 327.628906 43.527344 327.589844 43.503906 327.550781 43.480469 L 326.964844 43.148438 L 326.488281 42.898438 L 326.371094 42.835938 C 326.332031 42.8125 326.289062 42.792969 326.25 42.773438 L 325.765625 42.535156 C 325.441406 42.382812 325.113281 42.230469 324.78125 42.09375 C 322.121094 40.984375 319.269531 40.328125 316.371094 40.148438 C 315.648438 40.109375 314.917969 40.09375 314.191406 40.101562 L 313.644531 40.113281 C 313.597656 40.113281 313.554688 40.113281 313.507812 40.117188 L 313.371094 40.121094 L 313.097656 40.136719 L 312.960938 40.140625 L 312.890625 40.144531 L 312.824219 40.148438 L 312.550781 40.167969 C 312.367188 40.179688 312.183594 40.191406 312.003906 40.210938 C 311.273438 40.273438 310.546875 40.375 309.820312 40.5 L 309.546875 40.550781 L 309.410156 40.574219 L 309.277344 40.601562 L 308.734375 40.714844 C 308.375 40.800781 308.015625 40.882812 307.65625 40.984375 L 307.390625 41.058594 C 307.34375 41.070312 307.300781 41.085938 307.257812 41.097656 L 307.125 41.140625 L 306.859375 41.222656 L 306.726562 41.265625 L 306.660156 41.285156 L 306.59375 41.308594 L 306.328125 41.398438 C 306.238281 41.429688 306.152344 41.460938 306.0625 41.492188 C 305.886719 41.558594 305.710938 41.628906 305.535156 41.695312 C 305.449219 41.730469 305.363281 41.765625 305.277344 41.804688 L 305.144531 41.855469 L 305.015625 41.914062 L 304.757812 42.027344 L 304.5 42.148438 C 304.460938 42.167969 304.417969 42.1875 304.375 42.210938 L 304.246094 42.273438 C 304.164062 42.316406 304.078125 42.355469 303.992188 42.398438 C 303.824219 42.488281 303.65625 42.578125 303.492188 42.671875 C 303.160156 42.855469 302.835938 43.054688 302.511719 43.265625 L 302.273438 43.421875 C 302.195312 43.476562 302.117188 43.53125 302.039062 43.589844 L 301.921875 43.671875 C 301.878906 43.699219 301.84375 43.730469 301.804688 43.757812 L 301.570312 43.929688 C 300.960938 44.402344 300.375 44.917969 299.835938 45.492188 C 299.699219 45.636719 299.570312 45.785156 299.441406 45.933594 C 299.375 46.007812 299.3125 46.082031 299.25 46.160156 L 299.15625 46.273438 L 299.0625 46.390625 C 299.003906 46.46875 298.941406 46.546875 298.882812 46.625 L 298.707031 46.867188 C 298.648438 46.945312 298.589844 47.03125 298.535156 47.113281 L 298.453125 47.234375 L 298.410156 47.296875 L 298.371094 47.359375 L 298.210938 47.613281 C 298.183594 47.65625 298.160156 47.699219 298.132812 47.742188 L 298.058594 47.871094 L 297.984375 48.003906 C 297.957031 48.046875 297.933594 48.089844 297.910156 48.136719 L 297.769531 48.398438 L 297.636719 48.671875 C 297.617188 48.714844 297.59375 48.761719 297.574219 48.804688 L 297.511719 48.945312 L 297.449219 49.082031 C 297.429688 49.128906 297.410156 49.171875 297.390625 49.21875 L 297.226562 49.640625 L 297.175781 49.78125 C 297.144531 49.878906 297.109375 49.96875 297.078125 50.066406 L 296.988281 50.359375 C 296.976562 50.40625 296.964844 50.457031 296.949219 50.503906 L 296.910156 50.652344 L 296.875 50.800781 C 296.859375 50.847656 296.851562 50.898438 296.839844 50.945312 L 296.777344 51.242188 C 296.757812 51.339844 296.742188 51.4375 296.722656 51.539062 L 296.699219 51.683594 L 296.679688 51.832031 C 296.667969 51.933594 296.652344 52.03125 296.640625 52.128906 L 296.613281 52.425781 L 296.609375 52.5 L 296.605469 52.539062 L 296.605469 52.574219 L 296.589844 52.871094 C 296.585938 52.917969 296.585938 52.96875 296.585938 53.019531 L 296.582031 53.3125 L 296.582031 53.460938 L 296.585938 53.605469 L 296.59375 53.753906 C 296.59375 53.777344 296.59375 53.800781 296.59375 53.828125 L 296.601562 53.898438 L 296.621094 54.191406 C 296.625 54.242188 296.628906 54.289062 296.636719 54.335938 L 296.667969 54.625 C 296.671875 54.675781 296.683594 54.722656 296.6875 54.769531 L 296.730469 55.058594 C 296.75 55.152344 296.765625 55.246094 296.785156 55.339844 L 296.8125 55.484375 L 296.84375 55.625 C 296.867188 55.71875 296.886719 55.808594 296.910156 55.902344 L 296.984375 56.179688 C 297 56.226562 297.011719 56.273438 297.023438 56.316406 L 297.066406 56.453125 C 297.179688 56.820312 297.3125 57.175781 297.460938 57.523438 L 297.578125 57.78125 C 297.597656 57.824219 297.617188 57.863281 297.640625 57.90625 L 297.703125 58.035156 C 297.78125 58.203125 297.875 58.367188 297.964844 58.53125 C 298.011719 58.609375 298.0625 58.691406 298.109375 58.769531 L 298.183594 58.890625 C 298.207031 58.929688 298.234375 58.96875 298.257812 59.007812 L 298.414062 59.238281 L 298.574219 59.464844 C 298.601562 59.503906 298.628906 59.539062 298.65625 59.578125 L 298.871094 59.851562 C 298.882812 59.867188 298.898438 59.886719 298.914062 59.902344 C 299.035156 60.042969 299.152344 60.183594 299.277344 60.316406 L 299.371094 60.417969 L 299.46875 60.515625 L 299.664062 60.707031 C 299.679688 60.722656 299.695312 60.738281 299.710938 60.753906 L 299.761719 60.796875 L 299.867188 60.886719 C 299.933594 60.949219 300 61.007812 300.070312 61.066406 L 300.28125 61.234375 C 300.355469 61.289062 300.425781 61.34375 300.5 61.394531 L 300.609375 61.472656 C 300.644531 61.5 300.683594 61.523438 300.722656 61.546875 L 300.945312 61.691406 L 301.21875 61.402344 C 300.84375 60.835938 300.519531 60.253906 300.261719 59.65625 C 300.191406 59.507812 300.136719 59.355469 300.074219 59.207031 C 300.066406 59.1875 300.058594 59.171875 300.054688 59.152344 L 300.03125 59.09375 L 299.992188 58.980469 L 299.949219 58.867188 C 299.9375 58.832031 299.925781 58.792969 299.914062 58.753906 L 299.835938 58.527344 L 299.769531 58.296875 C 299.761719 58.261719 299.75 58.222656 299.738281 58.183594 L 299.710938 58.070312 C 299.691406 57.992188 299.667969 57.917969 299.652344 57.839844 C 299.617188 57.683594 299.582031 57.535156 299.554688 57.378906 L 299.53125 57.265625 C 299.523438 57.226562 299.515625 57.1875 299.511719 57.148438 L 299.476562 56.921875 C 299.433594 56.613281 299.398438 56.308594 299.382812 56 L 299.375 55.886719 C 299.371094 55.851562 299.375 55.8125 299.371094 55.773438 L 299.363281 55.546875 L 299.367188 55.320312 L 299.367188 55.207031 L 299.378906 54.867188 L 299.394531 54.644531 C 299.398438 54.605469 299.398438 54.570312 299.402344 54.53125 L 299.425781 54.3125 C 299.429688 54.273438 299.433594 54.238281 299.4375 54.199219 L 299.46875 53.980469 L 299.472656 53.925781 C 299.476562 53.90625 299.480469 53.890625 299.484375 53.871094 L 299.5 53.761719 L 299.519531 53.65625 L 299.527344 53.601562 L 299.539062 53.546875 L 299.585938 53.332031 C 299.589844 53.296875 299.601562 53.261719 299.609375 53.226562 L 299.632812 53.121094 L 299.660156 53.015625 L 299.664062 52.988281 L 299.671875 52.964844 L 299.6875 52.910156 L 299.746094 52.703125 C 299.765625 52.636719 299.789062 52.566406 299.808594 52.5 L 299.839844 52.398438 L 299.878906 52.296875 L 299.949219 52.097656 L 300.027344 51.898438 C 300.042969 51.867188 300.054688 51.835938 300.066406 51.804688 L 300.152344 51.609375 C 300.167969 51.578125 300.179688 51.546875 300.195312 51.515625 L 300.289062 51.328125 C 300.316406 51.265625 300.351562 51.203125 300.386719 51.140625 L 300.433594 51.046875 L 300.460938 51.003906 L 300.484375 50.957031 L 300.589844 50.773438 C 300.609375 50.742188 300.628906 50.710938 300.644531 50.683594 L 300.703125 50.59375 L 300.757812 50.503906 C 300.777344 50.472656 300.796875 50.445312 300.816406 50.414062 L 300.933594 50.238281 L 301.054688 50.066406 C 301.078125 50.039062 301.097656 50.007812 301.117188 49.980469 L 301.183594 49.894531 L 301.246094 49.8125 C 301.269531 49.785156 301.289062 49.753906 301.3125 49.726562 L 301.445312 49.5625 L 301.476562 49.519531 L 301.511719 49.480469 L 301.582031 49.398438 C 301.628906 49.347656 301.675781 49.292969 301.722656 49.238281 L 301.867188 49.082031 C 301.914062 49.027344 301.964844 48.976562 302.015625 48.925781 L 302.089844 48.847656 L 302.164062 48.773438 C 302.21875 48.722656 302.265625 48.671875 302.320312 48.621094 C 302.425781 48.523438 302.527344 48.425781 302.636719 48.328125 C 303.066406 47.941406 303.53125 47.582031 304.011719 47.242188 L 304.195312 47.117188 C 304.226562 47.097656 304.257812 47.074219 304.289062 47.054688 L 304.382812 46.992188 C 304.441406 46.953125 304.503906 46.910156 304.566406 46.871094 L 304.757812 46.75 C 305.011719 46.59375 305.265625 46.4375 305.53125 46.289062 C 305.660156 46.214844 305.792969 46.144531 305.925781 46.070312 C 305.992188 46.035156 306.058594 46 306.125 45.964844 L 306.226562 45.910156 C 306.261719 45.890625 306.292969 45.875 306.328125 45.859375 L 306.53125 45.753906 L 306.738281 45.652344 L 306.839844 45.601562 L 306.945312 45.554688 L 307.152344 45.457031 C 307.289062 45.394531 307.429688 45.328125 307.570312 45.265625 C 307.640625 45.234375 307.710938 45.203125 307.78125 45.175781 L 307.992188 45.085938 L 308.101562 45.039062 L 308.210938 44.996094 L 308.425781 44.910156 L 308.535156 44.867188 C 308.570312 44.851562 308.605469 44.835938 308.644531 44.824219 L 308.863281 44.742188 C 309.152344 44.628906 309.449219 44.53125 309.746094 44.425781 L 310.195312 44.285156 L 310.304688 44.25 L 310.417969 44.214844 L 310.644531 44.152344 C 311.25 43.980469 311.863281 43.828125 312.484375 43.710938 C 312.640625 43.675781 312.796875 43.652344 312.953125 43.625 L 313.1875 43.585938 L 313.246094 43.574219 L 313.65625 43.519531 L 313.773438 43.5 C 313.816406 43.496094 313.855469 43.488281 313.894531 43.484375 L 314.367188 43.433594 C 315 43.375 315.636719 43.339844 316.273438 43.335938 C 318.828125 43.324219 321.398438 43.734375 323.835938 44.570312 C 324.144531 44.667969 324.445312 44.78125 324.75 44.894531 L 325.199219 45.070312 C 325.234375 45.085938 325.273438 45.101562 325.308594 45.117188 L 325.421875 45.164062 L 325.644531 45.261719 L 325.867188 45.355469 L 326.414062 45.609375 C 326.453125 45.628906 326.488281 45.644531 326.523438 45.664062 L 326.957031 45.878906 C 327.101562 45.957031 327.242188 46.03125 327.386719 46.109375 C 327.53125 46.183594 327.667969 46.265625 327.8125 46.347656 L 328.023438 46.46875 L 328.074219 46.496094 L 328.125 46.53125 L 328.230469 46.59375 L 328.4375 46.71875 L 328.542969 46.785156 C 328.578125 46.804688 328.613281 46.824219 328.644531 46.847656 L 329.054688 47.113281 C 329.59375 47.476562 330.121094 47.859375 330.636719 48.265625 C 332.6875 49.890625 334.480469 51.878906 335.921875 54.113281 C 337.140625 56.011719 338.105469 58.089844 338.761719 60.28125 C 338.84375 60.636719 338.941406 60.992188 339.050781 61.339844 C 339.0625 61.386719 339.074219 61.429688 339.085938 61.476562 L 339.476562 61.402344 C 339.390625 60.71875 339.273438 60.039062 339.128906 59.363281 L 339.027344 58.917969 C 338.945312 58.085938 338.9375 57.246094 338.996094 56.414062 C 339.105469 54.789062 339.46875 53.183594 340.042969 51.667969 C 340.621094 50.152344 341.414062 48.71875 342.390625 47.4375 C 343.367188 46.15625 344.53125 45.027344 345.84375 44.113281 C 347.152344 43.195312 348.601562 42.484375 350.117188 41.988281 C 351.636719 41.492188 353.21875 41.207031 354.808594 41.128906 C 356.402344 41.050781 358 41.183594 359.546875 41.519531 C 360.320312 41.6875 361.078125 41.90625 361.820312 42.179688 C 362.558594 42.449219 363.277344 42.769531 363.96875 43.140625 C 365.359375 43.878906 366.648438 44.804688 367.800781 45.875 C 368.953125 46.945312 369.976562 48.160156 370.839844 49.472656 C 371.703125 50.785156 372.414062 52.199219 372.945312 53.671875 C 373.214844 54.40625 373.433594 55.15625 373.609375 55.914062 C 373.621094 55.964844 373.632812 56.011719 373.644531 56.058594 L 373.671875 56.199219 L 373.734375 56.488281 C 373.753906 56.582031 373.769531 56.675781 373.789062 56.773438 L 373.839844 57.058594 C 373.855469 57.15625 373.867188 57.253906 373.882812 57.347656 L 373.921875 57.640625 L 373.945312 57.785156 C 373.949219 57.832031 373.960938 57.878906 373.964844 57.929688 L 373.992188 58.21875 C 374.042969 58.609375 374.066406 59 374.089844 59.386719 L 374.113281 59.972656 L 374.117188 60.046875 L 374.117188 60.851562 L 374.109375 61.144531 L 374.097656 61.4375 L 374.097656 61.511719 L 374.09375 61.546875 L 374.09375 61.585938 L 374.082031 61.730469 L 374.0625 62.023438 L 374.054688 62.171875 C 374.050781 62.21875 374.050781 62.269531 374.042969 62.316406 L 373.984375 62.902344 C 373.898438 63.679688 373.773438 64.457031 373.613281 65.226562 L 373.480469 65.800781 C 373.472656 65.851562 373.460938 65.898438 373.449219 65.945312 L 373.410156 66.089844 L 373.339844 66.375 C 373.3125 66.46875 373.289062 66.566406 373.265625 66.660156 L 373.183594 66.945312 L 373.101562 67.226562 C 373.085938 67.277344 373.074219 67.324219 373.058594 67.371094 L 373.015625 67.511719 L 372.835938 68.074219 L 372.640625 68.632812 L 372.589844 68.773438 L 372.539062 68.910156 L 372.328125 69.464844 L 372.214844 69.742188 L 372.101562 70.015625 L 372.046875 70.152344 L 371.988281 70.289062 L 371.75 70.832031 C 371.582031 71.191406 371.414062 71.550781 371.234375 71.902344 L 371.101562 72.167969 C 371.078125 72.214844 371.054688 72.257812 371.03125 72.300781 L 370.964844 72.433594 L 370.824219 72.695312 C 370.777344 72.78125 370.730469 72.871094 370.683594 72.957031 L 370.390625 73.476562 L 370.355469 73.539062 L 370.316406 73.605469 L 370.242188 73.730469 L 370.089844 73.988281 L 370.011719 74.117188 C 369.988281 74.160156 369.960938 74.203125 369.9375 74.242188 L 369.777344 74.496094 C 369.671875 74.664062 369.570312 74.832031 369.457031 75 L 369.132812 75.496094 L 368.792969 75.984375 C 368.335938 76.636719 367.859375 77.273438 367.359375 77.890625 C 366.855469 78.503906 366.335938 79.101562 365.789062 79.6875 L 365.378906 80.125 L 365.328125 80.179688 L 365.167969 80.339844 L 364.960938 80.554688 L 364.855469 80.660156 C 364.820312 80.695312 364.785156 80.734375 364.746094 80.769531 L 364.535156 80.976562 C 364.390625 81.117188 364.25 81.261719 364.101562 81.398438 C 363.527344 81.953125 362.929688 82.488281 362.320312 83.015625 C 362.019531 83.277344 361.707031 83.535156 361.398438 83.792969 L 360.929688 84.171875 C 360.851562 84.238281 360.773438 84.300781 360.695312 84.363281 L 360.21875 84.738281 L 359.980469 84.921875 L 359.738281 85.105469 L 359.621094 85.199219 L 359.5 85.289062 L 359.011719 85.652344 L 358.523438 86.007812 C 357.867188 86.484375 357.203125 86.949219 356.53125 87.402344 C 355.859375 87.859375 355.175781 88.304688 354.492188 88.742188 C 351.742188 90.5 348.902344 92.148438 346.039062 93.8125 C 343.171875 95.484375 340.285156 97.175781 337.449219 99.003906 C 337.273438 99.117188 337.09375 99.234375 336.917969 99.347656 L 336.386719 99.695312 C 336.035156 99.929688 335.683594 100.164062 335.335938 100.402344 C 334.632812 100.878906 333.9375 101.363281 333.25 101.863281 C 333.164062 101.925781 333.078125 101.984375 332.992188 102.046875 L 332.734375 102.238281 C 332.5625 102.363281 332.390625 102.488281 332.21875 102.617188 L 331.710938 103 L 331.203125 103.390625 C 330.53125 103.914062 329.863281 104.449219 329.210938 105 C 328.554688 105.550781 327.910156 106.117188 327.28125 106.695312 L 326.808594 107.132812 L 326.347656 107.578125 L 326.230469 107.691406 C 326.191406 107.726562 326.152344 107.765625 326.117188 107.804688 L 325.65625 108.257812 C 325.582031 108.332031 325.507812 108.410156 325.433594 108.488281 L 325.207031 108.71875 C 325.132812 108.796875 325.054688 108.875 324.984375 108.953125 L 324.539062 109.425781 C 324.394531 109.582031 324.25 109.742188 324.105469 109.902344 C 323.960938 110.0625 323.820312 110.226562 323.679688 110.386719 L 323.46875 110.632812 L 323.414062 110.691406 L 323.261719 110.878906 C 323.121094 111.042969 322.984375 111.207031 322.847656 111.375 L 322.441406 111.878906 C 322.375 111.960938 322.308594 112.046875 322.246094 112.132812 L 322.046875 112.390625 C 321.984375 112.476562 321.917969 112.558594 321.851562 112.644531 L 321.46875 113.167969 L 321.375 113.296875 L 321.28125 113.429688 L 320.910156 113.957031 L 320.550781 114.492188 L 320.460938 114.625 C 320.429688 114.671875 320.402344 114.714844 320.371094 114.761719 L 320.199219 115.03125 L 320.023438 115.304688 C 319.964844 115.394531 319.910156 115.488281 319.855469 115.578125 L 319.6875 115.855469 C 319.632812 115.945312 319.574219 116.039062 319.523438 116.132812 L 319.199219 116.691406 C 318.777344 117.4375 318.382812 118.203125 318.015625 118.980469 L 317.746094 119.566406 C 317.703125 119.664062 317.660156 119.761719 317.617188 119.859375 L 317.492188 120.15625 C 317.453125 120.257812 317.410156 120.355469 317.367188 120.453125 L 317.132812 121.054688 C 317.113281 121.101562 317.09375 121.152344 317.074219 121.203125 L 317.019531 121.355469 C 316.945312 121.554688 316.871094 121.757812 316.800781 121.960938 L 316.597656 122.570312 C 316.582031 122.621094 316.566406 122.671875 316.550781 122.722656 L 316.503906 122.875 L 316.410156 123.183594 C 316.378906 123.285156 316.347656 123.386719 316.320312 123.492188 L 316.234375 123.800781 L 316.152344 124.109375 C 316.140625 124.164062 316.125 124.214844 316.113281 124.265625 L 316.074219 124.421875 C 316.027344 124.628906 315.976562 124.839844 315.929688 125.046875 L 315.800781 125.671875 C 315.789062 125.726562 315.777344 125.777344 315.769531 125.832031 L 315.742188 125.988281 L 315.6875 126.304688 C 315.667969 126.40625 315.648438 126.511719 315.632812 126.617188 L 315.546875 127.25 C 315.539062 127.304688 315.53125 127.355469 315.523438 127.410156 L 315.507812 127.566406 C 315.484375 127.777344 315.460938 127.988281 315.441406 128.199219 L 315.398438 128.835938 C 315.347656 129.683594 315.347656 130.527344 315.390625 131.371094 L 315.789062 131.382812 C 315.894531 130.558594 316.03125 129.746094 316.207031 128.945312 L 316.339844 128.347656 L 316.535156 127.605469 C 316.546875 127.554688 316.5625 127.507812 316.574219 127.457031 L 316.746094 126.871094 C 316.773438 126.773438 316.808594 126.675781 316.835938 126.578125 L 316.929688 126.285156 L 316.976562 126.140625 C 316.992188 126.09375 317.011719 126.046875 317.027344 125.996094 L 317.226562 125.421875 L 317.445312 124.851562 L 317.5 124.710938 C 317.515625 124.664062 317.535156 124.617188 317.554688 124.570312 L 317.671875 124.289062 L 317.785156 124.007812 C 317.828125 123.914062 317.867188 123.820312 317.910156 123.726562 L 318.03125 123.449219 L 318.09375 123.3125 C 318.113281 123.265625 318.136719 123.21875 318.15625 123.175781 L 318.417969 122.625 C 318.507812 122.445312 318.597656 122.265625 318.6875 122.082031 L 318.757812 121.949219 C 318.777344 121.902344 318.804688 121.859375 318.828125 121.8125 L 318.96875 121.546875 L 319.113281 121.28125 C 319.160156 121.191406 319.210938 121.105469 319.261719 121.015625 L 319.410156 120.75 C 319.457031 120.664062 319.507812 120.574219 319.558594 120.488281 L 319.867188 119.96875 C 320.289062 119.28125 320.730469 118.609375 321.195312 117.949219 L 321.546875 117.457031 C 321.605469 117.375 321.664062 117.296875 321.726562 117.214844 L 321.90625 116.972656 C 321.96875 116.894531 322.027344 116.8125 322.085938 116.730469 L 322.273438 116.496094 L 322.460938 116.257812 C 322.492188 116.21875 322.519531 116.175781 322.550781 116.136719 L 322.648438 116.019531 L 323.027344 115.554688 L 323.417969 115.09375 L 323.515625 114.976562 L 323.613281 114.863281 L 324.011719 114.410156 C 324.078125 114.335938 324.148438 114.261719 324.214844 114.1875 L 324.417969 113.964844 C 324.484375 113.890625 324.550781 113.816406 324.621094 113.742188 L 325.035156 113.304688 C 325.175781 113.160156 325.316406 113.019531 325.457031 112.875 L 325.5625 112.765625 L 325.613281 112.710938 L 325.667969 112.660156 L 325.882812 112.449219 C 326.027344 112.308594 326.167969 112.164062 326.3125 112.027344 C 326.460938 111.890625 326.605469 111.75 326.75 111.613281 L 327.191406 111.207031 C 327.265625 111.136719 327.339844 111.070312 327.417969 111.003906 L 327.640625 110.804688 C 327.714844 110.738281 327.789062 110.671875 327.867188 110.605469 L 328.09375 110.40625 L 328.324219 110.210938 C 328.363281 110.175781 328.398438 110.144531 328.4375 110.109375 L 328.554688 110.011719 L 329.015625 109.625 L 329.484375 109.242188 C 330.113281 108.734375 330.75 108.242188 331.398438 107.757812 C 333.992188 105.824219 336.738281 104.070312 339.550781 102.390625 C 342.367188 100.707031 345.25 99.085938 348.128906 97.402344 C 351.011719 95.714844 353.886719 93.957031 356.679688 92.027344 C 357.375 91.542969 358.066406 91.046875 358.753906 90.542969 C 359.4375 90.039062 360.113281 89.519531 360.785156 88.988281 L 361.285156 88.589844 L 361.785156 88.183594 L 361.90625 88.082031 L 362.03125 87.980469 L 362.523438 87.566406 L 362.765625 87.355469 L 363.011719 87.148438 C 363.089844 87.078125 363.171875 87.007812 363.253906 86.9375 L 363.734375 86.511719 C 364.054688 86.222656 364.371094 85.933594 364.683594 85.636719 C 365.3125 85.050781 365.929688 84.449219 366.527344 83.828125 C 366.675781 83.675781 366.824219 83.515625 366.972656 83.359375 L 367.195312 83.125 C 367.230469 83.085938 367.265625 83.042969 367.304688 83.003906 L 367.414062 82.886719 L 367.628906 82.644531 L 367.738281 82.527344 L 367.792969 82.464844 L 367.847656 82.40625 L 368.273438 81.917969 C 368.839844 81.265625 369.390625 80.589844 369.917969 79.902344 C 370.445312 79.210938 370.949219 78.5 371.429688 77.777344 L 371.785156 77.230469 L 372.128906 76.679688 C 372.246094 76.496094 372.351562 76.304688 372.464844 76.117188 L 372.628906 75.839844 C 372.65625 75.792969 372.683594 75.742188 372.707031 75.695312 L 372.789062 75.554688 L 372.945312 75.269531 L 373.027344 75.125 L 373.105469 74.984375 L 373.40625 74.40625 C 373.460938 74.308594 373.507812 74.210938 373.554688 74.113281 L 373.773438 73.675781 C 373.796875 73.628906 373.820312 73.578125 373.84375 73.53125 L 373.984375 73.234375 C 374.171875 72.839844 374.34375 72.441406 374.515625 72.042969 L 374.761719 71.4375 L 374.824219 71.285156 L 374.882812 71.132812 L 375.113281 70.519531 L 375.222656 70.210938 L 375.382812 69.746094 L 375.433594 69.589844 L 375.632812 68.964844 L 375.816406 68.335938 L 375.859375 68.179688 C 375.875 68.125 375.886719 68.074219 375.902344 68.019531 L 375.984375 67.703125 L 376.066406 67.382812 C 376.09375 67.277344 376.117188 67.171875 376.140625 67.066406 " fill-opacity="1" fill-rule="nonzero"/></g></g></g></g></g></svg>